<svg width="1404" height="1872" viewBox="-702 0 1404 1872" xmlns="http://www.w3.org/2000/svg" xmlns:xlink="http://www.w3.org/1999/xlink" version="1.2" baseProfile="tiny"><title>Necessary Conditions of Learning notes</title>\n<g><path fill="#000000" d="M-361.032 1147.53 L-361.032 1147.53 L-359.841 1146.92 L-358.727 1145.22 L-356.292 1139.82 L-353.753 1136.23 L-352.25 1132.77 L-348.713 1128.19 L-346.289 1123.82 L-343.715 1121.19 L-339.287 1113.81 L-336.828 1110.95 L-330.289 1099.82 L-323.715 1092.19 L-318.288 1082.82 L-315.711 1080.18 L-313.31 1075.84 L-310.69 1074.16 L-308.289 1069.82 L-305.751 1067.22 L-304.006 1063.51 L-300.285 1057.81 L-295.711 1052.18 L-293.289 1047.82 L-291.715 1046.19 L-288.285 1040.81 L-285.711 1038.18 L-283.289 1033.82 L-281.715 1032.19 L-278.285 1026.81 L-274.711 1023.18 L-272.289 1018.82 L-269.715 1016.19 L-263.285 1005.81 L-260.715 1003.19 L-256.173 996.053 L-251.715 991.19 L-248.285 985.81 L-245.711 983.183 L-243.287 978.815 L-237.713 971.185 L-232.287 961.814 L-226.285 952.81 L-219.71 946.188 L-213.715 939.19 L-202.285 923.809 L-197.985 919.499 L-196.866 918.926 L-189.308 908.834 L-185.976 906.47 L-184.285 903.809 L-178.715 898.19 L-177.285 895.81 L-166.715 885.19 L-162.283 878.81 L-160.855 877.919 L-158.289 873.816 L-154.715 870.19 L-153.285 867.81 L-146.715 861.19 L-141.285 853.81 L-134.828 846.946 L-132.289 842.816 L-127.751 837.225 L-126.25 833.775 L-122.711 830.183 L-114.289 816.816 L-108.711 810.183 L-106.289 805.816 L-103.856 803.919 L-99.2884 795.816 L-97.7152 794.19 L-93.2888 786.816 L-90.2846 783.292 L-89.5239 783.852 L-87.5038 783.984 L-85.5017 783.202 L-83.6714 785.835 L-80.1313 798.587 L-78.8689 801.413 L-75.7343 813.446 L-71.5134 832.894 L-67.7343 845.494 L-64.6101 859.682 L-58.3033 891.551 L-56.1674 899.463 L-56.8328 900.537 L-47.7669 939.178 L-45.3995 952.254 L-36.2698 989.528 L-34.1882 996.423 L-33.1442 998.445 L-33.8516 1000.47 L-33.8511 1002.53 L-31.8082 1005.6 L-30.4991 1010.09 L-24.2584 1036.55 L-15.6992 1067.42 L-11.8182 1088.5 L-10.1944 1102.29 L-9.49652 1102.8 L-8.03394 1101.99 L-6.14294 1096.49 L-7.69312 1086.14 L-11.7891 1063.28 L-22.1228 1024.67 L-25.8627 1008.56 L-25.528 1007.16 L-20.5035 1007.02 L-17.4965 1007.98 L-10.507 1007.99 L5.65448 1006.12 L18.5724 1003.26 L39.3013 997.357 L53.429 992.737 L59.5522 991.258 L75.4528 985.836 L88.8852 983.136 L110.457 976.216 L120.227 972.247 L124.744 969.683 L145.441 961.134 L148.013 961.529 L149.352 964.777 L160.262 1001.47 L162.63 1011.2 L166.361 1022.7 L169.75 1036.51 L174.51 1051.13 L177.864 1066.44 L177.201 1068.5 L178.074 1070.13 L180.5 1071.84 L182.897 1070.13 L182.865 1067.44 L180.613 1060.25 L177.369 1045.76 L173.751 1035.51 L165.262 1003.47 L154.258 965.438 L152.23 959.683 L156.184 957.288 L158.502 954.982 L158.842 952.472 L156.446 952.138 L153.554 953.862 L152.498 953.969 L150.771 953.247 L145.51 937.071 L138.851 919.597 L136.347 910.801 L122.206 869.558 L120.794 866.443 L113.334 841.77 L87.7828 774.456 L80.215 752.531 L75.6752 742.228 L71.1352 729.56 L71.1038 727.867 L73.4465 726.138 L74.4991 726.029 L91.2518 729.604 L107.529 733.754 L114.263 736.168 L129.53 739.754 L136.493 742.249 L152.114 746.151 L175.529 750.729 L217.553 760.734 L239.767 767.372 L276.483 776.301 L330.587 786.698 L356.145 793.166 L371.459 795.838 L372.473 795.157 L373.527 795.157 L374.474 795.852 L378.526 795.851 L379.851 794.526 L379.85 792.477 L379.202 791.738 L377.119 790.988 L354.445 787.304 L331.614 781.682 L282.109 772.511 L257.499 767.277 L241.765 763.372 L219.301 756.637 L200.439 752.113 L198.527 751.178 L197.466 751.829 L189.537 749.167 L188.5 749.799 L187.177 748.473 L189.165 743.737 L193.722 722.501 L206.385 673.323 L212.838 638.54 L212.2 637.5 L212.985 635.497 L212.985 624.503 L212.201 622.5 L212.835 621.461 L210.371 611.764 L208.324 605.77 L205.288 599.816 L203.199 597.495 L203.476 597.162 L206.526 597.147 L207.5 597.799 L208.474 597.147 L210.496 597.016 L212.5 597.799 L213.474 597.147 L215.496 597.016 L217.542 597.842 L234.501 596.137 L259.507 597.986 L263.526 597.852 L265.504 597.016 L267.526 597.147 L268.5 597.799 L269.474 597.147 L273.496 597.015 L275.5 597.799 L276.473 597.147 L279.5 597.001 L281.526 597.148 L282.473 597.843 L284.543 597.156 L330.503 598.97 L333.5 598.031 L334.982 598.498 L336.285 599.81 L339.512 605.064 L342.869 615.439 L342.87 636.562 L340.272 654.772 L335.517 673.898 L331.51 683.966 L318.287 710.185 L316.133 712.898 L313.439 712.867 L295.034 707.502 L285.543 704.203 L278.25 700.772 L273.56 699.132 L267.867 698.897 L266.138 696.553 L266.018 694.455 L268.445 692.144 L271.503 692.985 L278.553 692.862 L280.865 691.131 L280.865 690.512 L280.221 689.751 L273.559 687.134 L265.504 687.015 L264.018 687.498 L261.977 689.528 L260.138 692.446 L260.014 707.494 L261.75 712.225 L263.473 713.851 L266.522 713.851 L267.203 713.282 L269.084 705.147 L271.146 705.894 L273.526 704.128 L286.772 710.325 L301.732 715.354 L313.747 718.738 L307.5 729.084 L302.85 741.412 L299.014 757.506 L299.132 762.561 L300.771 767.246 L301.477 767.851 L303.496 767.983 L304.843 767.528 L304.852 764.474 L304.015 762.496 L304.014 757.506 L306.851 747.403 L311.751 733.776 L317.713 723.815 L319.867 721.102 L322.554 721.138 L327.796 723.365 L351.572 728.833 L377.591 736.839 L383.247 738.769 L384.778 740.251 L408.254 748.682 L414.446 751.862 L419.526 751.851 L421.842 749.527 L421.259 747.781 L411.633 745.165 L409.984 743.938 L404.445 741.774 L392.8 738.334 L384.192 733.68 L380.972 732.502 L369.472 729.247 L349.559 722.139 L347.466 722.829 L340.596 720.71 L333.262 719.187 L322.248 715.284 L324.292 712.178 L330.502 698.998 L334.516 691.931 L338.318 683.254 L343.372 668.235 L346.427 654.168 L348.986 636.493 L348.986 615.506 L346.21 605.577 L344.288 601.815 L343.158 600.528 L343.472 599.157 L348.493 599.014 L373.507 600.985 L375.526 600.852 L376.5 600.201 L377.473 600.843 L379.5 600.201 L380.5 600.799 L381.5 600.201 L383.503 600.985 L415.496 600.985 L417.474 600.148 L419.496 600.016 L421.474 600.852 L424.496 600.985 L427.497 600.03 L436.438 601.87 L440.494 601.986 L445.225 600.247 L445.851 599.523 L445.851 596.473 L444.526 595.149 L442.474 595.148 L441.527 595.843 L440.473 595.843 L439.526 595.148 L435.504 595.015 L432.5 595.969 L429.496 595.015 L415.504 595.015 L412.473 595.843 L411.526 595.148 L407.503 595.015 L405.457 595.843 L364.636 594.181 L336.721 591.959 L333.526 590.148 L332.496 590.016 L330.477 590.158 L330.03 590.881 L308.5 592.863 L283.496 591.03 L281.5 591.799 L280.526 591.147 L278.504 591.016 L276.527 591.842 L274.527 591.157 L271.472 591.842 L269.5 591.031 L267.5 591.799 L266.5 591.201 L265.526 591.852 L261.503 591.985 L258.472 591.157 L257.529 591.842 L256.438 591.864 L250.539 590.165 L248.496 590.985 L240.504 590.985 L238.5 590.201 L237.527 590.843 L235.5 590.201 L233.496 590.985 L204.476 590.838 L204.742 589.782 L215.572 587.135 L218.296 585.921 L229.411 583.241 L247.552 577.736 L259.684 575.107 L263.834 573.621 L274.274 571.208 L298.438 564.131 L306.496 564.015 L308.5 564.799 L309.842 563.527 L309.292 561.716 L311.199 560.331 L314.445 561.856 L315.529 561.841 L317.851 559.526 L317.861 557.446 L316.133 555.104 L315.548 555.028 L313.5 555.799 L312.526 555.148 L310.474 555.148 L309.5 555.799 L308.526 555.147 L306.503 555.016 L303.496 555.984 L301.473 555.852 L300.461 555.165 L294.562 556.864 L292.526 556.148 L289.507 556.014 L227.71 558.873 L178.543 563.842 L177.458 563.16 L167.541 564.839 L166.457 564.158 L148.493 565.986 L135.504 565.984 L134.199 565.505 L138.81 560.715 L141.308 559.165 L142.834 556.692 L145.472 555.023 L155.81 545.715 L158.19 544.285 L169.018 533.497 L171.046 532.924 L172.972 529.533 L177.81 524.715 L180.47 523.024 L182.977 519.528 L201.5 501 L203.81 498.715 L206.472 497.023 L226.022 477.473 L229.977 472.527 L252.023 450.472 L253.715 447.81 L263.025 438.5 L264.285 438.817 L268.707 448.177 L270.472 449.842 L272.503 448.98 L272.985 447.496 L272.862 444.446 L268.23 433.685 L273.023 429.473 L276.709 424.812 L281.285 420.19 L282.977 417.528 L290.285 409.19 L291.715 406.81 L300.285 397.19 L304.715 390.81 L308.285 387.19 L309.715 384.81 L314.285 380.19 L315.715 377.81 L330.285 363.19 L333.715 357.81 L337.285 354.19 L338.715 351.81 L343.284 347.19 L344.862 344.554 L344.85 342.477 L344.225 341.753 L340.536 340.172 L339.753 340.776 L338.028 344.467 L335.715 346.81 L334.285 349.19 L329.715 353.81 L326.285 359.19 L320.715 364.81 L319.023 367.472 L309.715 376.81 L308.023 379.472 L304.715 382.81 L299.285 390.19 L292.715 397.81 L291.285 400.19 L283.715 408.81 L282.285 411.19 L277.715 415.81 L276.023 418.472 L269.715 424.81 L266.709 428.709 L259.525 417.974 L254.247 407.775 L252.843 406.913 L247.179 397.058 L244.835 394.95 L241.285 389.81 L238.866 387.926 L231.926 379.866 L225.835 374.95 L224.166 372.692 L217.81 368.285 L210.192 361.717 L204.185 357.713 L181.253 345.681 L159.256 336.674 L145.868 332.482 L128.54 329.163 L127.5 329.799 L125.503 329.03 L111.321 331.95 L108.498 334.018 L108.015 335.503 L108.138 342.554 L109.839 344.893 L111.063 343.551 L112.739 337.784 L115.445 336.144 L117.539 336.835 L123.461 335.165 L124.5 335.799 L125.47 335.158 L126.562 335.135 L139.577 337.692 L148.555 339.736 L160.254 343.681 L179.254 351.682 L200.185 362.713 L210.19 369.715 L221.812 380.29 L226.188 383.709 L231.5 389.015 L232.074 390.134 L234.307 391.834 L239.715 399.19 L243.288 402.816 L246.712 409.184 L251.288 414.816 L258.711 428.184 L260.851 430.474 L260.851 433.526 L251.715 442.81 L250.023 445.472 L246.499 449.015 L245.926 450.133 L243.527 451.977 L224.977 470.528 L223.023 473.472 L202.472 494.023 L199.527 495.977 L175.19 520.285 L172.527 521.977 L168.983 525.5 L167.869 525.865 L164.715 522.19 L160.713 516.185 L157.288 509.816 L151.285 501.81 L148.715 499.19 L142.285 489.81 L140.715 488.19 L132.285 474.81 L128.715 471.19 L127.285 468.81 L123.984 465.499 L122.866 464.926 L120.471 461.976 L112.81 456.285 L110.184 453.711 L93.9645 443.494 L82.253 437.681 L67.5341 431.171 L66.4628 431.833 L58.2563 429.606 L40.5627 426.135 L37.4963 426.985 L32.5034 426.984 L31.1995 426.505 L34.715 421.81 L38.2848 418.19 L39.715 415.81 L43.2848 412.19 L44.715 409.81 L49.2848 405.19 L53.7148 398.81 L58.2849 394.19 L62.715 387.81 L77.2847 371.19 L86.715 357.81 L91.2848 353.19 L96.715 345.81 L100.285 342.19 L103.715 336.81 L106.285 334.19 L113.715 323.81 L117.285 320.19 L131.715 300.81 L138.285 293.19 L139.715 290.81 L153.285 277.19 L161.717 265.81 L162.474 265.15 L164.144 264.894 L166.862 260.554 L166.862 257.446 L165.132 255.102 L162.476 255.149 L157.717 260.808 L154.285 266.19 L148.715 272.81 L147.285 275.19 L136.715 285.81 L131.285 293.19 L127.715 296.81 L118.285 310.19 L114.715 313.81 L107.715 322.81 L102.285 331.19 L96.2848 339.19 L89.715 346.81 L88.2849 349.19 L82.715 354.81 L77.2847 363.19 L74.715 365.81 L70.2848 372.19 L66.7148 375.81 L65.2848 378.19 L59.715 383.81 L54.2848 391.19 L49.715 395.81 L48.0228 398.472 L37.715 409.81 L36.2848 412.19 L33.8663 414.074 L30.2848 419.19 L26.7148 422.81 L22.2847 429.19 L14.715 437.81 L8.28485 447.19 L2.71497 452.81 L-2.71533 460.19 L-11.2851 468.81 L-16.7152 476.19 L-23.285 483.81 L-24.7152 486.19 L-28.2906 489.709 L-35.3245 477.227 L-44.7534 453.772 L-48.3259 447.226 L-52.6881 435.779 L-58.3249 425.228 L-61.6744 415.744 L-72.3258 390.256 L-76.6754 377.772 L-80.3182 370.254 L-83.6819 361.745 L-101.247 328.227 L-116.49 294.034 L-127.494 273.035 L-134.506 260.965 L-140.753 247.773 L-145.712 238.816 L-147.293 237.177 L-152.502 225.998 L-156.312 219.221 L-159.688 210.779 L-165.506 200.965 L-170.687 189.78 L-180.494 171.035 L-187.799 158.501 L-187.15 157.528 L-187.104 155.867 L-190.474 153.149 L-192.526 153.149 L-193.851 154.474 L-193.852 158.526 L-189.708 164.822 L-187.247 170.227 L-183.687 175.78 L-181.51 180.966 L-175.687 191.78 L-170.498 203.002 L-164.491 214.033 L-161.321 222.191 L-157.753 227.773 L-152.292 240.178 L-147.714 246.814 L-140.506 261.965 L-133.713 272.814 L-124.494 290.035 L-116.754 305.772 L-112.797 314.543 L-110.52 320.939 L-85.6819 369.746 L-64.3248 425.228 L-57.7723 438.75 L-54.3176 448.255 L-49.6743 457.774 L-45.3182 469.254 L-41.3177 478.254 L-33.1996 492.505 L-34.5038 492.984 L-44.4966 492.985 L-46.5 492.201 L-47.4739 492.852 L-49.4964 492.984 L-51.5425 492.158 L-67.4576 493.841 L-68.474 493.148 L-70.526 493.148 L-71.5001 493.799 L-73.4969 493.03 L-82.4595 494.838 L-83.4999 494.2 L-84.5 494.799 L-85.4705 494.157 L-86.5632 494.133 L-101.227 496.581 L-121.461 500.835 L-122.534 500.171 L-143.466 507.829 L-144.528 507.177 L-150.774 510.326 L-158.97 513.493 L-163.776 516.249 L-171.969 519.493 L-189.184 528.711 L-192.81 532.285 L-196.002 534.502 L-198.285 536.81 L-199.836 539.311 L-204.188 542.709 L-208.81 547.285 L-211.472 548.977 L-229.528 566.823 L-232.308 565.165 L-236.715 558.81 L-239.289 556.184 L-241.711 551.816 L-248.287 543.186 L-251.712 536.816 L-254.715 532.81 L-260.285 527.19 L-266.715 517.81 L-268.285 516.19 L-273.715 507.81 L-275.289 506.184 L-282.713 492.814 L-290.287 481.185 L-295.506 471.965 L-307.497 449.003 L-312.753 437.772 L-317.506 429.965 L-325.49 413.034 L-339.753 384.772 L-351.711 365.816 L-356.285 360.19 L-363.287 350.186 L-371.712 334.816 L-373.801 332.495 L-372.473 332.158 L-371.529 332.842 L-370.445 332.856 L-367.692 331.166 L-359.285 319.81 L-356.715 317.19 L-351.285 308.81 L-348.715 306.19 L-345.285 300.81 L-334.715 288.19 L-333.285 285.81 L-317.19 269.715 L-304.19 259.715 L-282.81 245.285 L-277.184 240.711 L-272.815 238.287 L-266.186 233.713 L-246.191 222.679 L-223.512 214.736 L-204.541 211.161 L-203.527 211.843 L-202.473 211.843 L-201.526 211.148 L-199.439 211.131 L-187.811 214.717 L-184.283 220.19 L-183.527 220.848 L-182.44 220.975 L-180.158 217.507 L-182.711 212.816 L-185.782 209.747 L-198.506 206.014 L-203.563 206.13 L-219.844 208.84 L-230.233 211.639 L-246.254 217.682 L-257.965 223.494 L-271.184 230.712 L-272.776 232.25 L-278.177 234.707 L-280.81 237.285 L-291.184 243.711 L-293.816 246.289 L-298.184 248.711 L-299.816 250.289 L-310.19 256.715 L-318.81 264.285 L-321.19 265.715 L-325.81 270.285 L-328.166 271.692 L-329.717 274.189 L-331.134 275.074 L-332.99 277.475 L-334.134 278.074 L-339.285 283.81 L-340.715 286.19 L-345.285 290.81 L-354.715 304.19 L-359.289 309.816 L-361.711 314.184 L-367.285 320.81 L-368.715 323.19 L-371.285 325.81 L-374.716 330.704 L-394.717 294.81 L-395.476 294.149 L-397.496 294.016 L-399.503 295.02 L-399.856 296.555 L-388.494 316.035 L-382.484 327.068 L-379.292 334.176 L-377.866 335.074 L-375.753 337.772 L-368.287 351.186 L-356.285 368.19 L-354.711 369.816 L-352.289 374.184 L-350.715 375.81 L-346.713 381.815 L-339.713 393.814 L-328.49 416.034 L-322.506 428.965 L-315.687 440.78 L-310.498 452.002 L-306.494 459.035 L-296.506 478.965 L-286.713 494.814 L-279.753 506.772 L-278.25 510.225 L-274.711 513.816 L-272.289 518.183 L-270.715 519.81 L-263.285 531.19 L-257.715 536.81 L-254.711 540.816 L-249.173 549.946 L-244.711 554.816 L-242.289 559.184 L-239.285 563.19 L-236.715 565.81 L-235.024 568.471 L-232.291 570.714 L-234.315 573.01 L-236.775 569.751 L-241.233 567.928 L-268.461 562.165 L-269.534 562.829 L-274.403 560.852 L-282.455 558.728 L-322.9 550.149 L-329.463 548.167 L-330.539 548.835 L-371.319 539.379 L-378.466 537.171 L-379.54 537.837 L-386.688 536.108 L-414.43 527.736 L-443.189 520.363 L-446.442 519.134 L-448.972 518.949 L-450.98 513.533 L-451.477 513.149 L-454.554 513.138 L-459.446 515.862 L-462.562 515.868 L-475.744 513.093 L-487.765 509.621 L-508.224 504.761 L-527.552 501.589 L-536.447 499.138 L-542.526 499.148 L-543.849 500.471 L-543.896 502.133 L-541.249 504.228 L-534.732 506.199 L-503.353 511.862 L-463.304 521.764 L-465.504 525.033 L-468.516 532.1 L-472.647 547.269 L-476.501 559.033 L-483.408 589.737 L-487.84 618.458 L-487.201 619.5 L-487.985 621.503 L-487.985 642.496 L-487.031 645.5 L-487.969 648.5 L-487.201 650.5 L-487.852 651.474 L-487.867 653.56 L-486.167 658.463 L-486.799 659.5 L-486.201 660.5 L-486.835 661.539 L-485.165 667.461 L-485.842 668.47 L-485.86 669.559 L-484.939 672.005 L-483.161 681.459 L-483.838 682.54 L-481.168 694.463 L-481.833 695.537 L-479.165 705.468 L-481.5 705.999 L-526.5 705.999 L-528.526 705.852 L-530.5 705.031 L-532.5 705.799 L-534.5 705.031 L-536.474 705.852 L-540.5 705.999 L-542.526 705.852 L-543.543 705.157 L-565.154 707.146 L-566.85 708.476 L-566.969 709.5 L-566.528 710.843 L-565.496 710.983 L-563.474 710.852 L-562.527 710.157 L-559.473 710.843 L-557.497 710.015 L-530.5 710 L-527.474 710.148 L-525.5 710.969 L-523.5 710.201 L-521.497 710.985 L-510.504 710.985 L-508.5 710.201 L-507.526 710.852 L-503.503 710.985 L-501.526 710.148 L-499.507 710.015 L-479.543 711.842 L-478.502 711.202 L-477.752 711.779 L-472.326 726.226 L-468.247 735.227 L-466.008 738.476 L-464.5 738.969 L-463.02 738.502 L-462.171 737.466 L-470.866 714.558 L-470.843 711.472 L-469.496 711.016 L-458.507 711.014 L-439.543 712.842 L-438.5 712.2 L-437.5 712.799 L-436.5 712.2 L-435.5 712.799 L-434.5 712.201 L-432.5 712.969 L-430.459 712.161 L-420.493 713.986 L-415.474 713.852 L-414.5 713.201 L-413.527 713.843 L-412.473 713.842 L-411.527 713.157 L-408.497 713.985 L-395.504 713.985 L-393.527 713.157 L-391.5 713.799 L-390.527 713.157 L-387.496 713.984 L-385.474 713.852 L-384.5 713.201 L-383.526 713.852 L-379.503 713.985 L-376.5 713.031 L-374.5 713.799 L-373.5 713.201 L-372.526 713.852 L-370.474 713.852 L-369.5 713.201 L-368.53 713.842 L-367.437 713.866 L-359.541 712.162 L-358.457 712.842 L-337.493 711.014 L-333.474 711.147 L-332.5 711.799 L-331.5 711.201 L-330.526 711.852 L-325.507 711.986 L-305.543 710.158 L-304.53 710.842 L-303.437 710.868 L-281.563 709.131 L-278.437 709.866 L-269.541 708.161 L-268.459 708.839 L-257.917 707.092 L-244.54 704.162 L-239.158 709.473 L-239.496 710.979 L-249.715 725.19 L-255.285 730.81 L-256.977 733.472 L-265.29 741.812 L-268.71 746.188 L-273.285 750.81 L-274.715 753.19 L-279.285 757.81 L-280.977 760.472 L-283.285 762.81 L-286.715 768.19 L-295.285 776.81 L-307.717 793.189 L-309.134 794.073 L-315.074 801.133 L-321.285 806.81 L-324.692 812.165 L-327.308 813.834 L-333.715 823.19 L-343.289 833.816 L-347.717 841.189 L-349.134 842.073 L-352.836 846.95 L-358.285 852.81 L-361.715 858.19 L-365.289 861.816 L-367.711 866.184 L-371.285 869.81 L-374.715 875.19 L-376.289 876.816 L-378.711 881.183 L-383.285 885.81 L-386.715 891.19 L-389.288 893.816 L-392.712 900.184 L-394.285 901.81 L-397.715 907.19 L-401.285 910.81 L-405.715 917.19 L-409.285 920.81 L-414.715 928.19 L-417.285 930.81 L-425.715 943.19 L-429.19 945.715 L-433.173 950.053 L-437.715 957.19 L-439.285 958.809 L-442.715 964.19 L-445.285 966.81 L-450.715 975.19 L-455.285 980.81 L-465.715 996.19 L-475.289 1006.82 L-477.711 1011.18 L-481.285 1014.81 L-484.715 1020.19 L-486.25 1021.78 L-488.707 1027.18 L-489.842 1028.47 L-489.477 1030.01 L-486.528 1031.82 L-485 1030.5 L-481.713 1026.19 L-479.289 1021.82 L-477.711 1020.18 L-475.289 1015.82 L-469.285 1007.81 L-466.131 1004.13 L-465.51 1004.13 L-463.866 1005.07 L-462.023 1007.47 L-459.866 1009.07 L-454.19 1015.28 L-451.528 1016.98 L-443.19 1024.28 L-440.81 1025.71 L-437.19 1029.28 L-431.186 1033.29 L-424.814 1036.71 L-420.177 1040.29 L-414.773 1042.75 L-406.227 1048.25 L-400.822 1050.71 L-396.184 1054.29 L-386.186 1060.29 L-373.255 1066.32 L-363.749 1069.77 L-332.559 1084.87 L-330.474 1084.85 L-329.497 1083.98 L-329.157 1082.47 L-330.081 1080.86 L-332.058 1079.52 L-341.004 1075.5 L-361.543 1064.8 L-371.228 1061.25 L-382.178 1056.29 L-392.184 1050.29 L-393.816 1048.71 L-417.186 1035.29 L-421.775 1031.75 L-430.184 1027.29 L-438.816 1019.71 L-443.184 1017.29 L-446.81 1013.71 L-452.134 1009.93 L-458.285 1003.19 L-459.693 1000.83 L-461.709 999.286 L-458.289 993.816 L-456.711 992.183 L-454.289 987.816 L-446.715 978.19 L-441.285 969.81 L-438.715 967.19 L-434.289 959.816 L-431.715 957.19 L-426.926 950.866 L-423.715 948.19 L-416.715 939.19 L-410.285 929.81 L-401.715 920.19 L-396.285 912.81 L-393.715 910.19 L-392.283 907.81 L-391.526 907.151 L-390.452 907.028 L-386.985 910.5 L-385.866 911.073 L-384.023 913.472 L-373.19 924.285 L-370.528 925.977 L-362.812 932.709 L-356.188 939.29 L-349.19 945.285 L-345.184 948.288 L-331.81 956.715 L-329.19 959.285 L-321.816 963.711 L-320.19 965.285 L-314.186 969.287 L-300.816 976.711 L-299.184 978.288 L-291.776 981.75 L-290.225 983.249 L-278.809 987.679 L-271.5 991.838 L-269.103 990.132 L-269.061 987.002 L-285.191 980.32 L-296.186 974.287 L-307.772 966.753 L-311.228 965.247 L-324.19 956.285 L-325.816 954.711 L-345.134 941.926 L-346.834 939.692 L-353.19 935.285 L-359.81 928.715 L-371.134 919.926 L-373.502 916.999 L-377.164 913.95 L-381.074 908.866 L-385.285 905.19 L-387.823 901.472 L-384.285 895.81 L-373.711 883.183 L-371.289 878.816 L-369.715 877.19 L-366.285 871.81 L-363.715 869.19 L-360.285 863.809 L-356.715 860.19 L-353.285 854.81 L-348.715 851.19 L-345.285 845.81 L-340.715 841.19 L-334.285 831.81 L-330.715 828.19 L-327.285 822.81 L-323.715 819.19 L-322.023 816.527 L-318.715 813.19 L-317.285 810.81 L-315.19 808.715 L-312.692 807.165 L-311.023 804.527 L-306.715 800.19 L-305.308 797.834 L-302.835 796.308 L-301.285 793.81 L-298.746 791.3 L-294.287 801.186 L-287.285 812.19 L-285.715 813.809 L-282.926 818.134 L-280.693 819.833 L-279.023 822.472 L-271.473 831.023 L-265.19 836.285 L-262.834 837.692 L-260.19 841.285 L-252.816 845.711 L-247.19 851.285 L-244.528 852.977 L-242.19 855.285 L-234.184 861.288 L-229.817 863.711 L-225.19 868.285 L-219.81 871.715 L-215.19 876.285 L-212.528 877.977 L-203.184 887.289 L-198.816 889.711 L-193.951 894.165 L-188.81 897.715 L-187.177 899.528 L-188.715 902.19 L-194.285 907.81 L-198.715 914.19 L-205.285 920.81 L-206.977 923.472 L-210.289 926.816 L-212.711 931.183 L-217.285 935.81 L-218.977 938.472 L-228.285 947.81 L-234.285 955.81 L-242.711 970.183 L-247.289 975.816 L-249.711 980.183 L-251.285 981.81 L-254.715 987.19 L-260.285 993.809 L-263.715 999.19 L-266.289 1001.82 L-272.711 1012.18 L-275.289 1014.82 L-277.711 1019.18 L-281.289 1022.82 L-283.711 1027.18 L-286.289 1029.82 L-290.715 1037.19 L-293.285 1039.81 L-296.289 1043.82 L-298.713 1048.19 L-306.288 1057.82 L-309.712 1064.18 L-312.285 1066.81 L-314.077 1070.13 L-316.308 1071.83 L-319.715 1077.19 L-321.288 1078.82 L-325.712 1087.18 L-327.285 1088.81 L-330.715 1094.19 L-333.044 1096.05 L-344.711 1115.18 L-349.289 1120.82 L-358.287 1134.81 L-363.857 1144.44 L-363.503 1145.98 L-361.494 1147.8 M15.4568 1066 L15.4568 1066 L17.5546 1065.87 L21.2279 1064.25 L24.1656 1062.31 L26.8621 1057.55 L26.983 1055.5 L26.5275 1054.16 L24.4762 1054.15 L21.1579 1059.31 L15.5585 1061.87 L13.4738 1061.85 L11.5284 1060.15 L9.8316 1059.88 L8.85522 1058.41 L7.01385 1052.49 L7.13745 1042.45 L9.47491 1039.16 L11.5003 1039.8 L13.0228 1038.47 L14.8618 1035.55 L14.9695 1034.5 L14.5024 1033.02 L12.9809 1031.5 L11.4722 1031.16 L5.7124 1036.81 L3.86633 1040.41 L2.13123 1046.44 L2.14734 1050.53 L2.79932 1051.5 L2.16693 1052.54 L4.74902 1060.22 L6.68555 1063.16 L10.2247 1064.75 L11.4732 1065.85 M34.4832 1059.84 L34.4832 1059.84 L34.9813 1058.51 L34.8973 1056.87 L32.7394 1055.22 L31.1311 1049.56 L31.1488 1044.48 L35.2922 1041.29 L37.4572 1042.98 L38.4976 1042.98 L42.2619 1041.25 L46.771 1057.25 L47.4772 1057.85 L49.5275 1057.84 L49.9841 1056.5 L49.8675 1052.44 L47.1324 1043.56 L47.1489 1037.48 L58.5021 1027.98 L58.8419 1026.47 L57.9763 1025.5 L57.235 1025.3 L49.8376 1028.69 L48.0078 1031.48 L46.4323 1031.98 L44.0173 1027.53 L41.4737 1027.15 L40.1489 1028.47 L40.0298 1029.5 L41.8326 1035.46 L41.4974 1035.98 L40.5259 1036.85 L39.5 1036.97 L36.4449 1036.14 L30.7484 1039.7 L29.1348 1036.56 L29.8508 1031.47 L28.5261 1030.15 L27.5 1030.03 L26.0192 1030.5 L25.1485 1031.47 L25.0151 1036.5 L25.8519 1038.47 L25.8974 1042.13 L23.5534 1043.86 L21.4738 1043.85 L20.4994 1043.2 L17.2005 1046.5 L19.4705 1048.84 L25.9564 1047.09 L29.7491 1058.22 L31.4733 1059.85 M344.983 1056.54 L344.983 1056.54 L344.862 1051.45 L342.789 1048.27 L341.217 1041.67 L348.446 1038.14 L353.496 1038.01 L355.474 1038.85 L357.496 1038.98 L358.98 1038.5 L359.842 1037.53 L359 1035.5 L355.554 1033.14 L348.505 1033.01 L344.555 1034.86 L343.158 1034.53 L343.148 1032.47 L343.985 1030.5 L343.985 1026.5 L343.199 1024.49 L343.476 1024.16 L348.526 1024.15 L354.472 1029.84 L355.98 1029.5 L356.851 1028.53 L356.862 1025.45 L355.024 1022.53 L351.228 1019.75 L346.494 1018.01 L343.438 1018.13 L336.726 1019.79 L332.775 1021.75 L332.031 1023.5 L332.496 1024.98 L334.713 1027.71 L337.024 1025.5 L337.837 1025.48 L337.869 1027.56 L336.163 1034.46 L336.799 1035.5 L336.015 1037.5 L336.014 1044.49 L338.648 1055.15 L340.858 1058.89 L343.526 1058.85 L344.855 1057.52 M123.959 1056.52 L123.959 1056.52 L124.851 1055.53 L124.852 1053.47 L124.158 1052.53 L124.134 1051.44 L130.866 1013.56 L130.163 1011.46 L131.848 1004.51 L130.132 1002.1 L127.476 1002.15 L124.288 1007.18 L122.495 1008.8 L122.158 1007.47 L123.851 1005.53 L123.851 1001.47 L121.983 999.5 L120.857 999.139 L117.148 1004.47 L117.014 1012.49 L118.715 1016.19 L120.528 1017.82 L123.167 1016.31 L124.854 1014.45 L124.871 1020.56 L120.014 1050.51 L120.148 1055.53 L121.474 1056.85 M389.467 1049.98 L389.467 1049.98 L391.004 1049.48 L393.248 1046.22 L396.143 1037.88 L397.794 1029.72 L398.531 1029.18 L401.242 1030.76 L402.973 1044.46 L403.478 1044.85 L406.144 1044.89 L408.794 1040.73 L413.439 1039.13 L416.528 1039.16 L416.983 1040.5 L416.851 1042.53 L414.158 1045.47 L414.158 1046.53 L416.471 1048.84 L417.555 1048.86 L421.249 1046.22 L422.865 1042.56 L422.476 1039.16 L427.497 1039.02 L429.228 1039.75 L431.704 1046.17 L432.473 1046.84 L433.554 1046.86 L435.897 1045.13 L435.982 1044.54 L436.05 1027.03 L442.506 1025.01 L446.716 1025.31 L440.866 1029.07 L439.138 1031.45 L439.137 1035.55 L441.976 1040.47 L446.473 1043.85 L447.503 1043.98 L456.554 1043.86 L459.262 1042.25 L460.98 1047.47 L462.503 1047.98 L464.526 1047.85 L467.502 1044.98 L467.974 1043.44 L465.079 1041.05 L465.016 1040.56 L466.841 1024.54 L466.2 1023.5 L466.852 1022.53 L466.85 1020.48 L463.528 1018.18 L461.148 1020.47 L461.147 1024.53 L461.84 1025.54 L459.933 1036.95 L458.524 1038.85 L456.5 1039 L448.473 1038.85 L445.149 1035.53 L445.149 1033.48 L445.523 1032.99 L451.19 1029.28 L453.851 1026.53 L453.851 1022.47 L452.225 1020.75 L448.558 1019.13 L443.503 1019.01 L440.496 1019.98 L438.473 1019.85 L437.472 1019.18 L428.857 1022.66 L426.914 1033.98 L426.578 1033.99 L422.503 1033.98 L420.771 1033.25 L417.292 1023.82 L414.526 1021.15 L411.476 1021.15 L409.5 1023.16 L407.525 1021.16 L406.472 1021.16 L404.747 1022.78 L403.1 1025.91 L398.526 1021.15 L395.474 1021.15 L393.742 1022.79 L392.837 1025.33 L390.188 1038.69 L388.324 1043.09 L386.642 1039.23 L382.229 1023.75 L381.522 1023.15 L379.474 1023.15 L378.148 1024.47 L378.132 1028.56 L382.79 1044.42 L384.834 1048.31 L387.445 1049.86 M317.45 1047.84 L317.45 1047.84 L323.526 1047.85 L327.284 1045.19 L329.768 1038.31 L330.477 1038.85 L333.133 1038.9 L334.759 1036.69 L329.868 1033.92 L328.177 1031.53 L328.842 1030.53 L328.856 1029.44 L327.285 1026.81 L324.526 1024.15 L321.473 1024.15 L316.707 1028.82 L313.137 1038.44 L314.81 1044.42 L315.979 1046.47 M504.498 1045.84 L504.498 1045.84 L506.006 1043.78 L507.87 1035.56 L508.026 1023.08 L518.496 1021.14 L524.957 1023.05 L524.852 1027.53 L524.2 1028.5 L524.84 1029.54 L523.144 1041.56 L524.867 1043.9 L526.545 1043.98 L528.081 1042.52 L529.777 1037.31 L532.474 1039.85 L537.494 1039.99 L538.802 1039.69 L544.19 1036.28 L545.289 1035.18 L547.862 1030.55 L548.108 1023.86 L551.742 1021.68 L555.473 1020.17 L555.856 1021.55 L553.746 1026.49 L552.131 1032.44 L552.014 1036.49 L553.986 1041.47 L555.5 1041.98 L557.143 1041.89 L561.21 1034.42 L564.701 1023.23 L575.441 1026.87 L582.493 1026.99 L587.225 1025.31 L592.165 1022.31 L594.248 1019.22 L597.365 1010.31 L598.867 1005.56 L598.843 1001.47 L597.5 1001.03 L595.709 1001.82 L593.491 1007.07 L591.203 1014.44 L589.288 1018.18 L585.228 1021.25 L581.559 1022.87 L578.439 1022.87 L573.539 1021.22 L566.083 1018.05 L565.938 1017.01 L561.561 1015.14 L559.5 1015.8 L558.466 1015.17 L550.868 1017.52 L535.67 1020.78 L533.526 1021.98 L530.784 1024.69 L529.138 1018.67 L519.562 1016.13 L496.5 1019 L494.474 1018.85 L492.5 1018.03 L490.715 1018.71 L488.524 1016.15 L485.441 1016.13 L481.809 1017.72 L479.748 1020.7 L477.559 1018.02 L475.791 1018.13 L472.131 1034.44 L472.102 1040.13 L474.474 1041.87 L475.129 1041.86 L477.716 1038.8 L488.526 1037.17 L488.158 1039.53 L490.018 1041.5 L491.503 1041.98 L493.526 1041.85 L495.851 1039.53 L495.852 1037.47 L495.201 1036.5 L496.851 1034.53 L496.968 1033.5 L496.529 1032.16 L494.867 1031.9 L493.138 1029.55 L493.113 1026.84 L501.44 1023.14 L502.53 1023.17 L502.984 1024.5 L502.867 1034.56 L500.144 1041.45 L500.158 1042.53 L501.074 1044.13 L503.448 1045.86 M85.4501 1044.84 L85.4501 1044.84 L88.5267 1044.85 L90.2846 1043.19 L91.862 1040.55 L91.9847 1029.5 L91.015 1026.5 L91.015 1018.5 L91.4973 1017.02 L92.4973 1016.2 L93.2568 1016.79 L94.0925 1019.12 L97.849 1041.33 L100.332 1042.76 L100.878 1041.97 L102.96 1026.54 L106.445 1024.14 L108.229 1024.75 L109.867 1029.44 L109.898 1032.15 L108.136 1034.49 L110.528 1036.82 L113.851 1034.52 L113.869 1027.44 L112.226 1021.7 L114.873 1019.52 L113.225 1017.75 L109.809 1016.28 L107.923 1012.87 L103.5 1009.2 L100.748 1011.78 L98.5 1017.38 L96.2498 1011.78 L95.5244 1011.16 L94.4722 1011.16 L93.225 1012.25 L89.7748 1013.75 L87.1375 1017.45 L87.015 1027.5 L87.9847 1030.5 L87.9847 1037.5 L87.5024 1038.98 L86.4999 1039.8 L84.6978 1038.16 L83.8963 1036.57 L81.2313 1026.76 L80.5226 1026.15 L78.4738 1026.15 L77.1578 1027.47 L77.8516 1029.47 L77.8683 1031.56 L75.5214 1038.28 L71.2772 1027.81 L70.1547 1026.11 L68.4716 1026.15 L67.1483 1027.47 L67.1375 1031.55 L71.4838 1040.93 L73.5294 1044.02 L76.4717 1045.82 L78.2881 1044.18 L80.709 1040.29 M322.546 1042.84 L322.546 1042.84 L320.48 1042.85 L318.144 1039.56 L319.796 1033.55 L321.86 1030.14 L322.833 1030.47 L322.177 1032.53 L324.841 1036.47 L323.228 1042.25 M477.521 1037.79 L477.521 1037.79 L477.495 1037.2 M535.526 1034.96 L535.526 1034.96 L534.023 1034.51 L533.158 1033.53 L534.768 1027.75 L536.81 1025.71 L539.446 1024.14 L541.526 1024.15 L542.851 1025.47 L542.852 1029.53 L541.926 1031.13 L539.192 1033.28 L536.551 1034.86 M410.555 1034.82 L410.555 1034.82 L410.019 1033.5 L410.148 1031.47 L412.716 1028.3 L414.9 1032.99 M484.537 1032.98 L484.537 1032.98 L479.472 1032.84 L479.144 1031.44 L481.711 1026.82 L485.251 1022.3 L487.865 1028.44 L487.982 1030.54 L485.549 1032.86 M492.209 1025.52 L492.209 1025.52 L492.802 1025.5 M338.209 1024.52 L338.209 1024.52 L338.802 1024.5 M102.187 1019.5 L102.187 1019.5 L104.284 1015.3 L105.86 1017.44 L105.896 1019.13 L103.527 1020.82 M121.527 1010.79 L121.527 1010.79 L121.168 1009.48 L121.5 1009.2 L121.832 1010.53 M-3.41962 1001.86 L-3.41962 1001.86 L-10.4966 1002.02 L-12.5 1002.8 L-13.4728 1002.16 L-14.5272 1002.16 L-15.4707 1002.84 L-16.563 1002.87 L-27.0521 1000.92 L-30.2161 994.265 L-39.1313 959.671 L-43.7842 936.301 L-47.7357 919.446 L-49.8331 912.537 L-49.1633 911.46 L-53.8329 891.537 L-53.1649 890.461 L-54.8353 884.532 L-53.4965 884.016 L-51.5035 884.015 L-48.4965 884.985 L-39.5065 884.986 L-31.4933 883.015 L-27.4457 883.855 L-25.58 882.89 L-19.74 881.22 L-18.5006 880.2 L-17.4602 880.836 L14.4592 875.162 L15.5397 875.837 L32.2524 872.389 L53.2368 867.371 L61.7648 864.628 L75.4004 861.219 L78.4126 859.869 L92.2719 856.362 L103.255 852.317 L108.146 849.923 L110.064 848.077 L116.662 867.194 L118.205 870.556 L146.763 956.292 L137.772 959.675 L109.597 972.148 L92.2026 977.38 L72.4097 981.85 L58.552 986.258 L44.4012 989.852 L33.9078 993.521 L20.8167 997.195 M324.45 1000.83 L324.45 1000.83 L326.519 1000.85 L327.016 1000.47 L327.899 997.96 L330.972 971.449 L328.554 969.144 L326.699 969.836 L324.131 977.439 L324.001 998.5 M298.472 998.977 L298.472 998.977 L300.252 998.219 L301.75 995.301 L303.503 995.985 L309.558 995.865 L318.306 992.166 L321.231 988.246 L322.986 982.494 L322.865 979.441 L320.293 973.823 L319.19 972.715 L313.931 969.483 L307.494 967.014 L301.439 967.132 L290.778 970.749 L289.498 972.018 L289.015 973.503 L289.134 976.558 L290.753 980.225 L291.477 980.85 L293.842 980.528 L293.852 978.474 L293.201 977.5 L293.799 976.5 L293.2 975.499 L294.472 974.158 L295.842 974.472 L295.869 979.562 L294.13 986.438 L294.014 989.494 L295.809 996.502 L296.936 998.911 M371.924 993.134 L371.924 993.134 L373.231 991.246 L375.358 985.33 L378.686 991.16 L382.441 992.865 L385.558 992.865 L389.225 991.249 L393.19 988.285 L396.851 983.526 L396.851 981.474 L395.5 980.201 L392.866 982.074 L390.183 985.289 L385.554 987.862 L382.474 987.851 L380.149 985.526 L380.149 983.474 L381.816 981.711 L386.183 979.289 L388.473 977.148 L389.503 977.015 L396.93 977.032 L399.787 991.265 L400.477 991.85 L402.526 991.851 L403.851 990.526 L403.985 989.496 L403.852 986.474 L403.157 985.527 L403.799 983.5 L403.015 981.496 L403.135 976.441 L404.751 973.305 L410.715 981.19 L413.528 984.023 L416.445 985.856 L417.526 985.841 L419.823 982.529 L419.015 980.496 L419.015 972.504 L419.497 971.018 L420.799 969.5 L418.528 967.151 L416.844 967.115 L414.139 972.44 L414.984 975.503 L414.684 977.716 L405.982 968.497 L404.496 968.015 L398.845 968.113 L396.249 972.698 L395.523 972.148 L393.506 972.015 L385.727 973.789 L381.066 976.924 L379.163 969.541 L379.527 968.994 L382.471 967.177 L383.5 967.799 L384.474 967.147 L386.545 967.018 L389.502 969.798 L391.851 967.526 L391.851 965.474 L388.526 962.148 L384.439 962.132 L379.554 963.796 L376.053 965.829 L372.149 969.474 L372.149 971.523 L374.898 973.867 L374.984 975.497 L371.275 986.22 L370.318 987.716 L370.148 985.474 L370.799 984.5 L370.147 983.526 L370.016 981.503 L370.829 979.466 L368.321 972.809 L366.523 970.149 L364.474 970.148 L362.866 971.074 L360.753 973.772 L359.006 977.493 L356.288 981.703 L355.775 981.25 L352.314 971.746 L350.142 968.107 L347.474 968.148 L345.5 969.799 L343.869 969.134 L341.749 971.779 L339.132 979.439 L339.148 989.526 L341.018 991.502 L342.5 991.969 L344.228 991.246 L348.904 979.061 L352.714 987.184 L353.476 987.851 L355.5 987.999 L358.133 987.898 L361.249 984.225 L363.978 979.216 L365.838 986.459 L365.165 987.539 L366.739 993.215 L369.499 994.838 M447.471 991.962 L447.471 991.962 L448.978 991.507 L450.851 989.526 L450.898 986.853 L449.028 984.55 L450.991 975.217 L451.834 973.692 L453.897 972.133 L453.851 969.474 L452.529 968.158 L451.198 968.313 L448.692 969.834 L446.782 972.737 L445.131 978.438 L445.148 990.526 L446.477 991.852 M424.958 991.525 L424.958 991.525 L436.165 983.307 L437.856 980.555 L437.504 979.021 L435.285 975.81 L432.158 972.527 L432.158 971.472 L435.472 968.158 L436.981 968.497 L438.472 969.842 L440.283 969.189 L441.838 966.5 L439.524 963.149 L434.446 963.138 L429.836 966.689 L428.138 969.446 L428.148 974.526 L431.842 979.472 L431.842 980.527 L429.19 983.285 L421.149 988.476 L421.149 990.526 L422.019 991.502 L423.5 991.969 M307.579 990.856 L307.579 990.856 L304.995 990.937 L303.005 987.064 L301.47 987.15 L300.494 987.8 L300.162 987.524 L300.13 979.438 L302.059 972.036 L308.554 972.138 L316.159 976.685 L317.865 980.441 L317.862 982.554 L315.023 987.471 L312.424 989.19 M512.457 988.999 L512.457 988.999 L514.554 988.868 L520.158 986.312 L521.849 983.484 L520.077 975.244 L516.156 964.513 L517.348 962.973 L519.442 964.973 L520.529 964.849 L523.851 961.526 L523.502 959.018 L519.554 956.138 L517.446 956.138 L513.868 958.076 L512.138 960.446 L512.014 961.505 L512.138 968.554 L516.865 980.441 L516.85 982.523 L516.246 983.229 L511.56 984.867 L509.506 984.985 L503.754 983.231 L502.526 982.149 L500.157 982.472 L500.015 985.496 L500.74 987.218 L506.438 988.868 M481.966 988.513 L481.966 988.513 L485.318 975.822 L488.708 983.178 L490.977 986.472 L492.474 987.851 L493.5 987.969 L496.141 986.92 L498.131 983.569 L501.08 970.939 L503.752 969.285 L500.133 964.104 L498.475 964.151 L497.796 964.719 L495.12 979.624 L494.066 981.875 L492.708 981.176 L491.687 979.219 L486.134 966.56 L485.899 964.867 L483.553 963.138 L481.446 963.138 L468.534 968.829 L467.526 968.147 L463.446 968.138 L458.816 970.711 L457.707 971.823 L455.134 977.441 L455.137 983.554 L457.834 988.307 L460.446 989.862 L462.526 989.851 L466.293 986.176 L468.865 980.559 L468.852 976.474 L468.157 975.527 L468.523 973.993 L478.446 969.138 L480.527 969.157 L480.867 971.56 L479.845 975.031 L478.029 985.501 L478.317 986.804 L479.867 988.896 M461.575 983.965 L461.575 983.965 L460.155 983.532 L460.014 977.506 L460.32 976.19 L461.714 974.291 L463.851 976.474 L463.985 980.494 L463.683 981.804 M14.4806 977.979 L14.4806 977.979 L15.495 978.802 L17.1439 977.919 L21.9572 969.115 L28.4716 973.849 L30.1413 973.891 L32.2035 970.446 L33.8673 965.56 L33.9846 957.504 L32.9798 955.497 L31.4763 955.159 L30.7996 955.715 L28.0831 967.87 L27.0162 967.499 L24.7073 965.177 L22.2486 960.301 L21.4995 960.796 L20.7122 960.291 L18.6681 963.801 L16.2293 970.689 L13.3227 963.775 L11.142 960.109 L9.4715 960.15 L8.49738 961.02 L8.13928 962.559 L13.7493 977.222 M41.8416 972.545 L41.8416 972.545 L44.7975 961.625 L45.9785 959.527 L47.4726 958.158 L49.2866 958.817 L51.8224 963.471 L51.2005 964.5 L51.4999 964.974 L52.4737 965.851 L54.526 965.851 L55.8508 964.526 L55.8617 962.446 L53.145 955.846 L59.129 953.135 L63.4735 957.851 L67.5262 957.851 L72.2847 953.19 L75.6885 948.285 L75.986 952.493 L74.1304 960.438 L74.1483 963.526 L76.4722 965.842 L77.981 965.502 L79.842 963.527 L79.0149 960.496 L79.1323 957.439 L81.8387 944.541 L81.1647 943.461 L82.8469 937.513 L81.1323 935.104 L79.4715 935.15 L76.7148 937.81 L70.2887 948.183 L66.525 952.841 L65.1994 952.505 L65.8524 951.526 L65.9846 948.503 L65.5026 947.02 L64.5002 946.2 L62.8387 947.079 L61.2901 948.71 L60.5236 948.148 L58.4463 948.138 L52.5598 950.864 L51.4499 950.971 L49.538 949.008 L48.0076 946.523 L45.4739 946.149 L43.7503 947.775 L42.009 951.47 L39.4754 951.159 L38.9863 951.529 L37.1706 955.465 L37.7993 956.5 L37.1474 957.474 L37.0161 959.496 L37.7993 961.5 L37.1618 962.541 L38.9933 970.782 L40.4744 972.841 M266.797 970.691 L266.797 970.691 L269.85 968.523 L269.851 966.474 L268.527 965.158 L265.496 965.985 L261.446 965.862 L256.269 963.648 L242.745 959.326 L234.776 956.248 L230.199 953.666 L219.838 950.331 L217.224 948.751 L207.807 945.319 L191.257 936.684 L186.586 934.849 L176.627 932.203 L174.83 931.295 L174.149 930.524 L174.138 928.446 L176.084 924.856 L180.183 922.287 L181.081 920.855 L185.184 918.288 L188.285 915.19 L189.856 912.555 L189.502 911.02 L188.463 910.167 L184.016 911.935 L179.816 914.711 L174.528 919.851 L172.857 920.106 L168.249 928.698 L167.524 928.158 L166.475 928.159 L164.144 931.443 L165.866 938.588 L167.712 942.185 L170.285 944.81 L171.715 947.19 L174.474 949.851 L177.526 949.851 L179.841 947.529 L178.193 941.574 L177.138 939.553 L177.158 937.472 L178.554 937.144 L180.411 938.103 L189.171 940.655 L203.772 948.246 L215.224 952.751 L217.838 954.331 L228.198 957.665 L235.773 961.326 L258.409 969.153 L264.438 970.868 M518.522 961.79 L518.522 961.79 L518.495 961.197 M-21.503 947.854 L-21.503 947.854 L-20.1489 946.526 L-20.0154 944.506 L-21.8624 940.554 L-21.851 931.476 L-17.7112 928.183 L-13.1379 920.554 L-13.0144 919.494 L-13.1486 911.473 L-15.8347 907.692 L-18.4458 906.138 L-19.5057 906.014 L-24.5588 906.134 L-32.225 909.753 L-32.8411 910.475 L-32.5024 911.981 L-30.4723 913.822 L-23.5543 910.138 L-22.4944 910.014 L-19.4738 910.148 L-17.1487 912.473 L-17.1487 919.526 L-20.7114 925.183 L-22.0428 926.536 L-23.9783 920.534 L-26.5278 920.157 L-26.9843 921.503 L-26.8522 925.526 L-26.1479 926.474 L-26.0163 928.496 L-26.4978 929.982 L-27.8422 931.473 L-27.8422 932.527 L-26.7352 933.799 L-26.0077 935.81 L-24.1985 947.288 L-23.5225 947.85 M5.95929 941.523 L5.95929 941.523 L7.79907 939.5 L7.1474 938.526 L7.01361 934.507 L8.83923 923.541 L8.03064 921.5 L8.79907 919.5 L8.01501 917.496 L8.49426 914.199 L9.47406 914.852 L11.5584 914.865 L16.5503 913.028 L18.6707 915.202 L18.2006 916.5 L18.7993 917.5 L18.1584 918.542 L20.098 933.98 L21.5303 933.848 L22.8514 932.526 L22.9847 931.496 L22.9847 920.503 L22.0307 917.5 L22.852 915.526 L22.9847 912.503 L22.291 910.71 L30.1479 905.923 L31.8554 904.135 L32.4979 904.143 L32.9684 905.5 L32.2006 907.5 L32.8524 908.473 L32.9847 913.496 L32.5023 914.982 L31.1487 916.474 L31.0308 917.5 L33.1068 921.422 L34.7793 927.26 L36.5279 928.823 L39.8508 926.524 L39.8513 922.474 L38.5004 921.2 L37.4943 921.8 L37.1621 921.524 L37.1485 918.473 L39.8099 915.715 L42.4693 914.178 L43.248 914.779 L45.8604 921.44 L45.5023 922.981 L44.1577 924.473 L44.1578 925.527 L45.4739 926.851 L47.5228 926.85 L48.2288 926.246 L49.8514 921.5 L47.138 914.554 L47.1484 911.474 L48.8098 909.715 L51.5009 908.107 L53.9709 916.824 L55.9926 920.477 L57.5032 920.984 L61.145 920.898 L63.0999 918.968 L65.8621 913.554 L65.9855 906.505 L65.6881 905.198 L62.283 899.81 L61.5234 899.149 L59.4459 899.138 L54.8162 901.711 L53.1838 903.288 L45.9287 906.872 L43.2063 896.724 L42.5221 896.149 L40.4739 896.149 L39.163 897.539 L41.8662 908.438 L41.8902 910.144 L37.7172 912.751 L36.014 908.494 L36.015 903.503 L36.8518 901.526 L36.8512 898.473 L35.5259 897.149 L34.5 897.031 L33.0181 897.497 L28.19 902.285 L18.3973 908.194 L8.84009 911.082 L7.29016 912.71 L6.52368 912.148 L3.47595 912.149 L-0.540039 917.893 L-3.03864 909.225 L-3.97137 908.479 L-5.13342 909.074 L-6.82239 911.472 L-6.1571 912.472 L-6.15747 913.527 L-6.98499 915.503 L-6.86224 919.554 L-5.02289 922.472 L-3.52661 923.851 L-2.49634 923.984 L-0.473877 923.851 L1.0741 921.867 L3.47864 920.177 L3.83698 920.478 L3.9859 929.493 L2.14392 938.556 L3.99243 941.477 L5.5321 941.843 M356.413 935.968 L356.413 935.968 L357.977 935.507 L358.851 934.526 L358.862 932.446 L356.649 927.27 L353.216 915.542 L344.215 888.531 L340.326 877.773 L330.871 856.602 L326.326 842.745 L319.785 826.469 L316.203 815.543 L311.276 802.801 L308.3 801.251 L311.473 798.148 L315.558 798.134 L319.228 799.753 L322.19 801.715 L326.19 804.715 L328.074 807.133 L333.445 810.862 L337.526 810.851 L338.851 809.526 L338.851 807.474 L337.5 806.201 L336.526 806.852 L334.474 806.851 L330.81 804.285 L327.954 800.956 L324.777 799.253 L321.224 795.75 L315.554 793.138 L313.441 793.134 L305.521 796.823 L305.158 795.473 L305.852 794.526 L305.851 790.473 L304.492 789.136 L303.845 789.144 L300.781 795.539 L299.132 800.439 L299.148 809.526 L300.472 810.849 L302.143 810.89 L305.714 804.817 L306.499 804.204 L307.246 804.776 L324.335 848.771 L327.665 859.198 L334.319 873.747 L341.502 893.035 L350.77 921.298 L348.12 923.524 L349.75 927.225 L352.285 929.81 L355.948 935.919 M57.3289 913.794 L57.3289 913.794 L57.1327 911.439 L58.7709 906.754 L59.4757 906.159 L60.5272 906.158 L61.8512 907.474 L61.8656 911.558 L59.2941 916.706 M91.4262 912.849 L91.4262 912.849 L92.9763 912.506 L93.8513 911.526 L93.9859 903.506 L91.0138 887.493 L91.1322 881.439 L92.8326 876.536 L91.5273 875.158 L90.4725 875.158 L88.7854 876.732 L87.0137 884.506 L87.1294 887.562 L89.8693 902.438 L89.8376 906.524 L88.7176 906.189 L82.287 895.815 L78.1326 890.102 L74.4734 890.148 L70.8343 892.692 L66.1437 899.445 L66.1654 900.53 L67.5004 900.968 L69.2134 900.309 L71.7801 911.257 L72.4753 911.849 L74.2285 911.861 L77.2058 895.066 L83.7111 906.183 L86.7148 910.19 L87.7751 911.249 M46.2094 953.521 L46.2094 953.521 L46.8024 953.495 M-182.499 894.812 L-182.499 894.812 L-186.228 893.246 L-189.19 891.285 L-191.81 888.715 L-201.19 882.285 L-208.812 874.709 L-213.164 871.311 L-215.81 867.715 L-221.19 864.285 L-225.816 859.711 L-230.184 857.289 L-232.81 854.715 L-238.19 851.285 L-249.775 840.75 L-253.467 839.028 L-256.134 836.926 L-258.81 833.715 L-261.472 832.023 L-275.023 818.472 L-276.715 815.81 L-280.285 812.19 L-290.291 797.178 L-293.866 788.558 L-293.852 784.474 L-291.715 782.19 L-290.285 779.81 L-283.715 773.19 L-278.285 765.81 L-275.715 763.19 L-272.285 757.81 L-267.836 753.95 L-263.715 749.19 L-262.285 746.81 L-253.715 738.19 L-248.285 730.81 L-243.715 726.19 L-235.291 713.29 L-230.528 716.977 L-222.977 724.527 L-221.285 727.19 L-214.002 734.498 L-208.192 739.283 L-199.81 744.715 L-195.186 748.287 L-188.814 751.713 L-180.227 757.247 L-166.996 763.503 L-158.225 768.248 L-138.507 775.249 L-125.582 778.3 L-105.541 781.839 L-104.5 781.2 L-103.5 781.799 L-102.526 781.148 L-100.44 781.133 L-96.2513 782.73 L-104.287 794.815 L-107.077 800.132 L-110.285 802.81 L-115.715 811.19 L-121.285 817.81 L-126.715 826.19 L-129.285 828.809 L-133.711 836.183 L-139.715 844.19 L-143.285 847.81 L-144.715 850.19 L-149.285 854.81 L-152.074 859.134 L-154.308 860.833 L-158.715 867.19 L-162.289 870.816 L-164.828 874.946 L-168.285 878.809 L-169.715 881.19 M-46.4568 880 L-46.4568 880 L-50.5588 879.865 L-55.0392 877.951 L-56.829 874.534 L-56.1632 873.46 L-69.7397 812.467 L-72.7527 801.473 L-76.492 790.069 L-78.8604 784.557 L-78.9783 783.093 L-37.9082 778.218 L-19.7098 774.382 L-12.8004 772.334 L2.2207 766.312 L9.82184 761.708 L29.1779 752.292 L32.8141 749.713 L43.2251 744.249 L49.8162 738.711 L60.1901 732.285 L65.2535 727.3 L96.6732 813.254 L99.4839 819.931 L101.253 822.783 L103.871 831.596 L106.862 837.446 L106.861 839.553 L105.889 841.422 L104.276 847.202 L90.2697 852.363 L77.7645 855.64 L70.7366 858.168 L56.6955 861.644 L50.5341 863.829 L49.4631 863.167 L32.2509 867.389 L10.5621 871.864 L7.43866 871.137 L4.17517 872.095 L-17.2889 875.619 L-27.4397 878.867 L-29.526 878.852 L-30.5389 878.165 L-41.4613 880.835 L-42.4738 880.147 M109.478 845.209 L109.478 845.209 L109.505 845.802 M307.183 803.54 L307.183 803.54 L307.497 802.195 L307.829 803.524 M304.79 797.478 L304.79 797.478 L304.197 797.505 M561.797 783.691 L561.797 783.691 L564.313 782.163 L565.868 780.135 L566.983 780.5 L568.474 781.851 L570.522 781.85 L571.22 781.256 L572.746 776.305 L573.084 777.143 L574.993 778.462 L577.446 779.862 L578.505 779.986 L585.559 779.865 L589.439 778.14 L590.802 778.313 L593.445 779.862 L599.494 779.986 L607.988 777.1 L609.843 781.318 L612.5 782.838 L626.184 776.288 L627.851 774.526 L627.851 770.474 L620.291 762.714 L622.751 760.771 L627.206 759.269 L628.823 756.528 L626.177 753.707 L620.5 751.153 L616.775 752.751 L614.683 754.853 L612.037 767.459 L610.184 769.288 L607.966 770.504 L597.559 774.86 L596.02 774.502 L595.148 773.526 L595.061 770.002 L600.322 767.881 L610.895 765.006 L609.19 762.715 L606.554 761.138 L605.494 761.014 L602.439 761.132 L597.754 762.768 L596.527 763.841 L595.177 763.478 L596.797 760.73 L606.547 758.058 L607.878 757.178 L607.897 754.867 L605.553 753.138 L602.438 753.13 L595.289 754.824 L590.821 756.708 L589.497 758.019 L589.157 759.527 L589.851 760.474 L589.865 762.558 L588.139 766.441 L588.985 769.503 L588.984 773.496 L588.528 774.843 L587.496 774.984 L579.503 774.985 L577.497 773.98 L577.158 771.474 L578.133 770.927 L583.851 764.526 L583.851 762.474 L577.5 757.2 L576.5 757.799 L574.496 757.015 L570.446 757.138 L563.816 760.713 L563.149 761.476 L563.132 766.56 L565.868 776.438 L565.505 778.8 L564.527 778.157 L563.473 778.157 L562.526 778.843 L561.475 778.841 L560.713 778.183 L558.157 773.493 L560.864 764.562 L560.842 763.47 L560.148 762.528 L559.899 760.867 L557.553 759.138 L554.849 759.112 L553.658 760.931 L551.2 773.285 L549.5 773.969 L548.018 773.502 L545.778 771.259 L544.137 764.437 L545.833 759.537 L544.926 757.867 L542.556 756.144 L534.493 757.986 L524.503 757.985 L522.527 757.157 L520.5 757.799 L518.496 757.015 L512.474 757.148 L511.148 758.474 L511.032 760.931 L519.437 762.87 L521.526 762.852 L522.505 762.199 L522.838 762.476 L522.984 766.496 L522.48 767.821 L520.696 766.946 L513.562 765.13 L510.948 764.918 L507.515 757.067 L505.498 754.202 L504.5 754.799 L502.5 754.031 L501.018 754.498 L499.711 755.816 L496.955 761.017 L481.676 763.939 L476.554 765.856 L475.166 765.53 L475.137 764.439 L477.701 758.289 L478.476 758.852 L481.562 758.869 L487.918 756.947 L487.888 756.533 L485.526 754.148 L484.496 754.016 L482.474 754.148 L481.527 754.843 L478.496 754.015 L472.446 754.138 L470.107 755.869 L470.106 757.146 L471.867 758.854 L471.015 761.503 L470.898 767.133 L467.2 770.5 L468.027 771.995 L472.205 773.73 L474.529 777.024 L477.445 778.862 L486.554 778.862 L492.441 776.134 L496.168 775.881 L498.986 769.533 L502.496 769.984 L504.505 769.199 L504.984 771.496 L504.139 774.559 L505.986 778.471 L508.526 778.851 L510.851 776.526 L510.852 773.474 L510.151 772.53 L510.025 771.086 L521.911 769.071 L524.688 779.152 L526.474 780.851 L528.527 780.842 L528.983 779.496 L528.867 777.439 L527.014 771.493 L527.147 767.474 L527.852 766.526 L528.032 764.069 L537.93 762.033 L540.63 773.075 L541.978 775.473 L544.81 778.285 L547.446 779.862 L550.496 779.985 L554.142 778.139 L556.834 782.307 L559.446 783.862 M456.959 780.523 L456.959 780.523 L457.852 779.531 L457.998 777.5 L457.852 775.474 L457.157 774.527 L457.842 771.472 L457.015 769.496 L457.148 764.474 L458.473 763.148 L463.496 763.015 L466.527 763.842 L467.842 762.527 L466.926 759.867 L464.553 758.138 L459.503 758.015 L457.494 758.8 L457.162 758.524 L457.157 750.472 L458.503 750.016 L468.496 750.015 L469.982 750.497 L471.5 751.799 L472.851 750.526 L472.851 747.477 L472.245 746.771 L467.56 745.132 L463.474 745.147 L462.5 745.799 L461.525 745.148 L459.439 745.133 L448.54 747.837 L447.5 747.2 L445.149 749.474 L445.472 751.843 L451.046 752.078 L452.865 755.441 L452.851 760.526 L451.2 762.5 L452.195 763.702 L453.808 780.298 L455.499 780.969 M-84.4713 777.962 L-84.4713 777.962 L-85.837 777.533 L-85.5026 776.02 L-84.5264 775.148 L-79.4375 775.13 L-74.2716 776.499 L-79.4593 777.838 L-80.4999 777.2 L-81.5001 777.799 L-82.5002 777.201 M-90.4505 777.829 L-90.4505 777.829 L-92.56 777.871 L-100.46 776.162 L-101.474 776.852 L-103.562 776.87 L-122.461 773.165 L-123.534 773.829 L-127.466 772.171 L-128.537 772.833 L-144.529 768.245 L-157.435 763.184 L-182.184 750.288 L-183.801 748.495 L-181.446 748.138 L-165.227 755.335 L-140.837 763.665 L-138.528 764.822 L-137.463 764.167 L-124.71 768.179 L-117.54 769.837 L-116.473 769.178 L-114.681 770.055 L-90.7241 774.794 L-90.0315 776.499 M610.545 776.829 L610.545 776.829 L609.197 776.508 L610.472 775.158 L611.525 775.17 L611.5 775.973 M-65.4551 776.824 L-65.4551 776.824 L-68.497 776.984 L-69.8024 776.5 L-66.5037 776.016 L-65.1945 776.504 M571.099 774.313 L571.099 774.313 L570.136 772.558 L570.134 767.441 L571.986 763.529 L573.503 763.016 L575.527 763.157 L575.842 764.527 L572.79 768.726 M613.573 774.849 L613.573 774.849 L612.196 774.508 L616.713 769.291 L618.799 771.5 L617.224 773.249 M483.537 774.985 L483.537 774.985 L479.474 774.851 L476.5 771.984 L476.115 770.958 L480.411 768.85 L486.438 767.131 L490.528 767.157 L490.998 769.5 L490.477 772.007 L488.225 773.314 M-39.7897 773.527 L-39.7897 773.527 L-38.4797 773.168 L-38.1981 773.5 L-39.5306 773.832 M-59.4196 771.86 L-59.4196 771.86 L-63.5261 771.852 L-65.5 771.031 L-67.5 771.799 L-68.5 771.2 L-69.5 771.799 L-70.5002 771.2 L-71.54 771.837 L-78.4602 770.163 L-79.4999 770.799 L-80.4742 770.148 L-82.526 770.148 L-83.5005 770.799 L-84.7994 769.5 L-83.9258 767.866 L-81.7163 766.19 L-80.0466 763.078 L-77.4742 763.148 L-76.5262 763.852 L-74.5 763.998 L-69.5037 763.016 L-67.5262 763.852 L-65.507 763.985 L-52.5421 762.159 L-51.526 762.852 L-49.4376 762.871 L-38.1955 761.08 L-20.5677 757.232 L-14.5428 755.201 L-9.52759 752.158 L-7.49945 752.799 L-2.22504 749.752 L8.93262 745.515 L25.1854 736.287 L28.0306 733.898 L40.1849 727.287 L52.4724 718.158 L53.9791 718.496 L56.8932 720.869 L56.8933 722.131 L51.8103 725.717 L50.9531 727.045 L45.8226 729.707 L44.2241 731.25 L38.8219 733.708 L34.2241 737.25 L28.8232 739.707 L27.2214 741.251 L21.0319 743.897 L19.2258 745.277 L12.9313 748.516 L0.772705 753.753 L-1.422 755.107 L-7.26019 756.779 L-8.82324 758.293 L-10.7806 759.313 L-25.7998 765.346 L-35.33 768.131 L-43.7205 770.051 M-25.4637 770.984 L-25.4637 770.984 L-27.7053 770.717 L-8.77283 763.247 L1.77252 757.753 L12.2529 753.319 L18.445 750.144 L19.799 750.493 L19.1828 751.285 L12.2269 755.247 L6.82312 757.707 L5.18359 759.289 L0.250061 762.228 L-17.0712 768.51 M-90.0368 769.911 L-90.0368 769.911 L-94.5534 769.862 L-96.3067 768.951 L-124.45 763.263 L-128.425 761.845 L-146.603 757.149 L-154.223 754.323 L-157.716 752.314 L-154.446 752.138 L-148.527 754.279 L-116.54 760.837 L-115.462 760.165 L-101.541 762.839 L-100.5 762.2 L-99.5262 762.852 L-97.5 762.998 L-95.474 762.852 L-94.5258 762.148 L-92.4399 762.133 L-88.0638 764 L-88.134 765.562 M503.549 764.829 L503.549 764.829 L501.166 764.53 L501.318 763.195 L502.869 761.136 L503.841 761.475 L503.983 763.495 M-67.4568 759 L-67.4568 759 L-75.5606 758.867 L-79.9382 757 L-79.985 755.502 L-76.2376 722.989 L-70.5011 685.066 L-64.1649 653.539 L-64.8354 652.461 L-63.2213 646.741 L-61.5 645.201 L-55.8165 648.711 L-53.5006 650.799 L-52.4995 650.201 L-50.1838 652.289 L-42.2281 657.247 L-22.8161 667.712 L-21.2245 669.249 L-11.8146 673.713 L-8.22821 676.247 L-4.77496 677.75 L-3.18378 679.289 L1.77179 682.247 L5.22791 683.753 L14.7717 690.247 L18.228 691.753 L22.8158 695.288 L29.1855 698.713 L35.1901 702.715 L38.8098 706.285 L49.7084 714.713 L47.19 717.285 L41.8095 720.715 L39.1766 723.293 L33.7755 725.75 L32.184 727.288 L25.8157 730.712 L24.184 732.288 L11.8143 738.713 L8.22382 741.248 L1.26385 744.216 L-4.26294 745.782 L-6.5658 747.184 L-19.7692 752.333 L-26.8122 754.399 L-39.2806 756.523 L-61.507 758.986 M-94.4568 758 L-94.4568 758 L-105.561 757.867 L-115.461 755.165 L-116.471 755.842 L-117.562 755.864 L-147.214 749.396 L-172.901 741.516 L-178.753 738.77 L-187.423 736.211 L-193.75 732.772 L-200.17 730.298 L-201.823 728.707 L-208.932 725.516 L-219.19 719.285 L-227.285 712.19 L-230.285 708.19 L-231.882 704.955 L-224.456 701.782 L-212.266 697.645 L-190.732 691.354 L-166.582 682.836 L-156.755 680.23 L-149.443 676.795 L-124.964 668.493 L-101.733 661.354 L-81.1971 652.664 L-71.5537 649.138 L-69.4724 649.157 L-69.0159 650.504 L-69.1314 653.561 L-73.5947 677.265 L-75.8328 686.463 L-75.1634 687.54 L-80.4207 719.69 L-85.0432 754.886 L-87.4738 757.851 M431.844 751.544 L431.844 751.544 L432.852 749.526 L432.851 746.473 L429.713 742.185 L426.287 735.814 L420.285 726.81 L418.711 725.184 L415.288 718.816 L412.711 716.184 L406.753 706.227 L403.288 698.815 L394.715 689.19 L390.008 682.523 L386.867 682.102 L385.177 684.472 L385.852 685.471 L386.1 687.133 L388.31 688.837 L390.711 693.183 L398.247 701.773 L403.753 713.227 L407.715 719.19 L410.289 721.816 L415.711 731.184 L418.285 733.81 L420.287 736.814 L427.712 750.184 L429.474 751.851 M-161.79 751.527 L-161.79 751.527 L-160.504 751.019 L-158.198 751.5 L-159.504 751.983 M-164.5 750.871 L-164.5 750.871 L-168.716 748.314 L-166.446 748.138 L-163.963 749.551 L-162.452 750.853 M21.528 749.963 L21.528 749.963 L20.2768 749.686 L23.754 746.768 L28.4896 745.009 L36.1835 740.289 L37.816 738.711 L42.4459 736.138 L44.8003 736.495 L42.2241 739.25 L36.8218 741.708 L31.1856 745.287 L22.5508 749.863 M182.269 747.749 L182.269 747.749 L139.045 737.489 L124.55 732.741 L106.757 727.803 L89.822 723.767 L76.7654 721.352 L73.3041 720.236 L80.0228 714.472 L81.715 711.81 L91.2848 702.19 L92.9771 699.527 L95.2848 697.19 L102.287 686.185 L107.319 676.253 L111.209 667.426 L113.394 659.255 L118.115 635.55 L119.758 621.758 L125.774 618.674 L155.544 606.783 L181.439 598.132 L186.557 598.016 L188.945 600.921 L189.443 600.984 L192.56 600.867 L197.321 599.223 L199.711 603.184 L201.249 604.775 L203.221 609.561 L205.867 618.439 L205.986 642.493 L201.388 667.323 L191.794 707.25 L184.218 744.548 M-184.459 747.818 L-184.459 747.818 L-185.976 747.506 L-186.801 746.495 L-185.473 746.158 L-184.197 747.508 M-192.478 743.79 L-192.478 743.79 L-192.505 743.197 M-195.478 741.79 L-195.478 741.79 L-195.505 741.197 M-196.459 740.817 L-196.459 740.817 L-197.805 740.503 L-196.476 740.17 M-198.21 739.478 L-198.21 739.478 L-198.803 739.505 M45.5217 735.79 L45.5217 735.79 L45.4952 735.197 M47.5216 734.79 L47.5216 734.79 L47.4951 734.197 M48.2094 733.522 L48.2094 733.522 L48.8024 733.495 M49.5081 732.824 L49.5081 732.824 L49.4695 732.168 L50.8019 732.499 M52.2094 731.522 L52.2094 731.522 L52.8026 731.495 M53.2094 730.522 L53.2094 730.522 L53.8024 730.495 M54.5217 729.79 L54.5217 729.79 L54.4951 729.197 M55.2104 728.527 L55.2104 728.527 L56.5201 728.168 L56.8018 728.5 L55.4694 728.832 M57.5216 727.79 L57.5216 727.79 L57.4953 727.197 M58.5215 726.79 L58.5215 726.79 L58.4951 726.197 M60.4915 725.176 L60.4915 725.176 L60.5305 725.832 L59.1978 725.5 M61.169 723.515 L61.169 723.515 L62.5197 723.167 L62.8 723.495 L61.4953 724.8 M62.574 716.85 L62.574 716.85 L60.4777 716.853 L58.4999 714.983 L58.1345 713.869 L61.2851 711.19 L62.8342 708.692 L65.4722 707.023 L69.8121 702.709 L74.3074 699.166 L81.2867 689.185 L92.5104 666.966 L97.1151 656.654 L99.8386 641.541 L99.1629 640.46 L101.729 629.798 L104.772 627.753 L108.959 626.089 L110.986 632.506 L110.986 645.493 L109.134 652.589 L107.502 655.969 L100.288 668.184 L98.7112 669.816 L92.2525 680.223 L89.7501 682.776 L87.2917 688.178 L85.2848 691.19 L82.715 693.81 L78.2849 700.19 L75.7501 702.776 L73.293 708.177 L67.1836 714.289 M75.5217 712.79 L75.5217 712.79 L75.4952 712.197 M52.1951 709.718 L52.1951 709.718 L49.5287 708.024 L47.19 705.715 L39.8657 700.926 L38.1661 698.692 L26.8146 692.287 L23.8098 690.285 L21.2242 687.75 L15.822 685.292 L9.18555 680.713 L-15.1857 666.287 L-19.7543 662.768 L-24.4892 661.01 L-33.1857 656.287 L-43.7721 649.753 L-47.2253 648.249 L-48.8165 646.711 L-53.6951 643.749 L-40.289 638.645 L-12.3969 630.129 L-6.47937 627.745 L4.50317 625.267 L26.5977 618.751 L38.7479 616.092 L53.2617 611.812 L72.2679 607.364 L84.4656 603.171 L85.5276 603.822 L98.4395 599.132 L100.528 599.157 L100.985 601.493 L98.1292 619.437 L97.9205 625.046 L91.457 628.202 L80.5427 631.799 L76.2273 634.247 L71.228 636.334 L48.5565 643.795 L30.5538 651.862 L28.5038 651.983 L27.1572 651.527 L27.1378 649.446 L30.7115 642.816 L31.8514 641.526 L31.9832 640.501 L31.9211 638.953 L28.6851 637.23 L25.6869 641.78 L21.6795 650.741 L20.1342 654.441 L20.0151 660.497 L21.088 663.157 L22.7757 664.272 L26.4656 665.829 L27.4726 665.157 L28.5272 665.157 L30.5035 665.985 L33.5586 665.865 L38.506 664.014 L43.4966 664.015 L45.474 664.852 L47.5275 664.842 L47.8619 662.446 L46.314 659.84 L42.5342 658.171 L41.4999 658.799 L40.4609 658.165 L33.4935 659.986 L26.5033 659.984 L25.1275 659.481 L25.1031 659.002 L38.2216 654.311 L43.4714 651.177 L44.5282 651.822 L48.7706 649.677 L76.224 640.248 L86.0432 635.503 L95.4727 632.171 L95.837 632.478 L95.8706 638.562 L93.1188 654.645 L86.2465 670.227 L83.4917 675.032 L78.2866 686.185 L74.2848 692.19 L70.9261 696.133 L63.1899 703.285 L60.5277 704.977 L55.9818 710.502 L53.4736 710.851 M-381.443 708.835 L-381.443 708.835 L-383.501 708.03 L-385.5 708.799 L-386.474 708.147 L-391.5 708.001 L-393.526 708.147 L-394.5 708.799 L-395.473 708.157 L-397.5 708.799 L-398.5 708.201 L-399.474 708.852 L-401.496 708.984 L-403.473 708.157 L-405.543 708.843 L-438.457 707.156 L-439.543 707.842 L-457.507 706.014 L-472.974 705.948 L-475.402 696.305 L-480.839 662.541 L-480.148 661.526 L-480.015 659.507 L-481.865 651.562 L-481.157 648.472 L-481.969 646.5 L-481.201 644.5 L-481.985 642.496 L-481.985 636.503 L-481.201 634.5 L-481.985 632.496 L-481.986 621.507 L-478.327 596.33 L-472.505 569.038 L-469.364 556.732 L-465.628 545.235 L-462.218 531.597 L-457.321 522.224 L-427.421 529.735 L-381.539 542.835 L-380.472 542.178 L-374.814 544.201 L-341.743 551.628 L-336.24 553.684 L-343.335 571.771 L-346.298 582.396 L-350.248 600.272 L-354.986 633.506 L-354.986 674.493 L-353.047 689.497 L-351.501 694.946 L-349.293 700.177 L-345.526 703.851 L-343.474 703.851 L-341.291 701.714 L-345.288 698.185 L-346.523 695.91 L-348.305 690.406 L-349.298 684.84 L-350.986 673.493 L-350.986 644.507 L-348.161 621.541 L-348.839 620.459 L-345.317 597.512 L-342.15 582.105 L-340.353 575.728 L-333.251 556.779 L-330.502 554.202 L-328.163 556.896 L-326.145 555.134 L-325.476 555.129 L-323.868 555.973 L-283.676 564.615 L-274.012 567.115 L-243.154 572.983 L-238.108 575.857 L-238.149 578.526 L-244.289 585.816 L-248.313 592.78 L-254.205 606.557 L-257.371 616.764 L-259.432 625.895 L-261.841 643.458 L-261.015 645.503 L-261.131 649.561 L-263.986 662.506 L-263.87 669.562 L-261.361 680.162 L-257.287 689.186 L-255.285 692.19 L-251.715 695.81 L-249.307 699.223 L-256.733 701.122 L-274.96 703.127 L-352.457 706.843 L-353.541 706.161 L-359.524 707.072 M79.5219 707.787 L79.5219 707.787 L79.142 706.449 L80.7151 703.81 L89.288 693.184 L93.7114 684.816 L96.2885 682.184 L102.711 671.816 L104.505 670.199 L104.856 671.555 L102.32 677.252 L96.2885 688.184 L94.715 689.81 L91.2848 695.19 L87.7148 698.81 L86.3077 701.165 L83.8344 702.692 L82.2849 705.19 M-233.421 699.856 L-233.421 699.856 L-235.522 699.853 L-238.288 697.184 L-242.713 688.814 L-246.312 683.221 L-250.116 673.655 L-252.867 658.563 L-252.201 656.5 L-252.853 655.526 L-252.986 652.507 L-250.984 633.218 L-247.222 619.561 L-243.312 609.779 L-238.753 602.227 L-235.504 595.033 L-228.289 582.816 L-226.5 581.201 L-225.159 582.471 L-225.144 583.555 L-228.149 590.398 L-234.26 608.468 L-239.87 633.438 L-239.851 639.526 L-238.526 640.851 L-235.478 640.851 L-234.803 640.291 L-232.629 625.461 L-230.508 616.075 L-227.205 604.556 L-225.663 601.195 L-221.322 587.769 L-219.286 583.816 L-218.527 583.159 L-217.438 583.136 L-205.772 586.675 L-182.774 595.674 L-172.597 600.149 L-163.799 602.655 L-150.602 608.148 L-138.543 611.797 L-125.719 616.681 L-91.7727 630.753 L-81.5286 635.823 L-80.4995 635.201 L-76.965 638.108 L-69.7547 640.768 L-68.2909 642.29 L-71.7735 644.321 L-85.2205 648.749 L-87.7807 650.313 L-103.072 656.511 L-152.423 671.789 L-159.577 675.211 L-179.971 681.5 L-191.581 686.228 L-201.504 688.748 L-217.265 693.784 L-220.473 695.236 L-226.587 696.9 L-228.751 698.228 M376.498 693.807 L376.498 693.807 L379.315 692.154 L382.749 682.78 L384.715 679.81 L386.472 678.158 L387.979 678.496 L393.773 682.247 L399.446 684.862 L404.526 684.851 L405.799 683.5 L404.919 681.855 L403.008 680.536 L388.554 672.138 L384.474 672.148 L378.975 676.529 L376.024 681.148 L374.15 690.483 M-251.478 687.79 L-251.478 687.79 L-251.505 687.197 M-252.478 686.79 L-252.478 686.79 L-252.505 686.197 M-253.478 684.79 L-253.478 684.79 L-253.505 684.197 M-254.131 683.466 L-254.131 683.466 L-256.15 679.59 L-257.869 673.561 L-257.742 668.3 L-255.204 677.38 L-254.138 679.446 M106.824 667.491 L106.824 667.491 L106.168 667.53 L106.499 666.198 M-258.176 666.491 L-258.176 666.491 L-258.832 666.53 L-258.501 665.198 M26.5216 652.79 L26.5216 652.79 L26.495 652.197 M-57.4221 639.854 L-57.4221 639.854 L-59.491 639.983 L-60.9806 639.503 L-61.8512 638.526 L-61.8674 636.439 L-56.6154 616.323 L-44.2766 558.497 L-40.636 546.269 L-33.3572 517.668 L-31.348 510.732 L-29.1529 506.143 L-27.5001 506.799 L-25.4966 506.015 L-13.5037 506.015 L-11.5001 506.799 L-10.5 506.201 L-9.5 506.799 L-8.52948 506.157 L-7.43896 506.137 L-1.44733 508.227 L11.2368 511.641 L27.4626 517.833 L28.5004 517.2 L32.4457 519.862 L35.1592 520.106 L36.9781 521.521 L37.9727 521.498 L44.1778 524.708 L49.1835 527.711 L54.9501 532.835 L61.0228 538.528 L62.838 541.31 L67.2829 543.81 L72.715 552.19 L75.0739 555.134 L77.3097 556.837 L83.7149 566.19 L86.6892 569.205 L48.5418 573.84 L47.4595 573.162 L23.4932 575.986 L19.4737 575.852 L18.5259 575.148 L16.4999 575.002 L14.4737 575.148 L13.5261 575.852 L9.50336 575.985 L7.47119 575.177 L4.14929 577.476 L4.14893 579.526 L5.47363 580.851 L14.4963 580.985 L16.4999 580.201 L18.5034 580.985 L25.4963 580.985 L27.5 580.201 L28.5 580.799 L30.5 580.031 L32.4738 580.852 L34.493 580.985 L44.4589 579.161 L45.5419 579.84 L89.545 575.017 L92.2468 577.772 L93.972 581.467 L95.2879 582.816 L99.8221 592.472 L98.5275 593.842 L95.4449 593.144 L91.4569 595.201 L73.5268 601.247 L37.679 611.121 L17.3011 615.897 L6.30042 619.363 L-10.4398 623.778 L-33.5987 630.872 M-67.4583 635.828 L-67.4583 635.828 L-68.9778 635.505 L-70.8161 633.712 L-77.0341 630.49 L-90.7293 624.656 L-95.5869 621.849 L-115.224 614.249 L-121.735 610.784 L-149.931 601.508 L-164.397 595.851 L-170.602 594.149 L-180.774 589.674 L-196.543 583.783 L-214.526 578.182 L-216.974 576.561 L-214.94 570 L-199.144 562.155 L-199.5 561.018 L-200.474 560.149 L-202.526 560.148 L-204.504 560.985 L-207.522 560.837 L-207.675 560.206 L-206.285 557.81 L-192.81 548.285 L-189.19 544.715 L-184.867 541.926 L-182.184 538.711 L-177.817 536.287 L-176.926 534.866 L-174.192 532.717 L-163.186 525.714 L-159.257 523.684 L-149.753 520.231 L-148.501 519.2 L-147.473 519.821 L-145.59 518.895 L-129.557 514.205 L-118.534 510.171 L-117.463 510.833 L-112.537 509.167 L-111.472 509.822 L-105.534 507.171 L-104.46 507.837 L-97.5627 506.135 L-95.5 506.799 L-93.4966 506.015 L-82.5036 506.015 L-80.5 506.799 L-79.526 506.148 L-77.4742 506.148 L-76.5 506.799 L-75.4602 506.163 L-51.7404 511.779 L-50.1841 513.288 L-43.5279 516.822 L-42.1581 515.527 L-42.158 514.473 L-43.816 512.711 L-47.9456 510.166 L-48.8941 508.987 L-43.5621 507.131 L-36.4722 507.157 L-36.1346 509.558 L-39.3579 518.698 L-50.2961 559.451 L-61.6142 613.321 L-65.8287 629.466 L-65.1673 630.537 L-66.7718 635.246 M-29.5097 771.167 L-29.5097 771.167 L-29.4706 771.839 L-31.8025 771.5 M105.573 621.865 L105.573 621.865 L103.527 622.842 L102.161 622.465 L104.792 607.73 L105.248 607.308 L107.263 612.465 L108.975 619.563 M113.833 617.49 L113.833 617.49 L113.16 617.53 L113.017 616.496 L113.5 614.197 L113.982 615.503 M119.563 615.845 L119.563 615.845 L117.855 614.387 L113.059 599.115 L128.507 597.014 L142.496 597.015 L144.5 597.799 L146.503 597.015 L166.706 597.282 L160.597 600.129 L151.798 602.655 L142.528 606.822 L141.471 606.177 L138.25 608.227 M112.176 613.545 L112.176 613.545 L112.018 611.509 L112.5 610.198 L112.983 612.496 L112.496 613.806 M110.883 608.5 L110.883 608.5 L107.144 599.555 L107.493 598.201 L109.321 600.809 L111.865 607.441 L111.837 609.523 L111.153 609.519 M105.824 669.491 L105.824 669.491 L105.168 669.531 L105.499 668.198 M-246.522 603.209 L-246.522 603.209 L-246.495 603.802 M-245.817 601.541 L-245.817 601.541 L-245.503 600.195 L-245.171 601.524 M-244.817 598.542 L-244.817 598.542 L-244.682 597.191 L-242.315 593.284 L-242.138 595.554 L-243.718 598.189 L-244.51 598.802 M188.508 597.824 L188.508 597.824 L188.469 597.168 L189.802 597.5 M78.5215 708.79 L78.5215 708.79 L78.4951 708.197 M-241.478 592.79 L-241.478 592.79 L-241.505 592.197 M183.025 591.524 L183.025 591.524 L181.506 591.03 L179.5 591.799 L177.496 591.015 L129.5 591.001 L127.474 591.148 L125.496 591.985 L122.474 591.852 L121.5 591.201 L119.496 591.985 L111.477 591.851 L110.753 591.225 L109.23 587.685 L116.81 580.715 L119.165 579.308 L120.715 576.81 L124.532 572.975 L126.353 572.142 L150.457 570.157 L151.542 570.842 L168.437 569.132 L170.541 569.839 L193.436 567.132 L195.542 567.84 L233.506 563.014 L238.496 563.015 L241.497 563.97 L252.507 562.014 L285.699 562.257 L216.429 580.864 L213.572 582.136 L202.738 584.783 L198.89 586.513 L190.402 588.871 L183.529 591.832 M-240.817 591.54 L-240.817 591.54 L-240.503 590.195 L-240.171 591.524 M17.7972 590.691 L17.7972 590.691 L20.7976 588.498 L18.2437 585.768 L4.00488 582.052 L-1.17737 579.293 L-4.84949 575.528 L-4.89618 573.867 L-1.22528 570.75 L2.46649 569.028 L4.80975 566.715 L12.1836 562.289 L13.5022 560.982 L13.9837 559.496 L13.8513 557.474 L12.526 556.149 L10.4739 556.149 L8.19006 558.285 L2.80969 561.715 L1.17651 563.293 L-4.22443 565.75 L-7.4715 568.851 L-9.14435 569.106 L-11.8565 573.445 L-11.8419 574.529 L-6.49805 582.002 L-5.18384 583.289 L-0.171753 586.296 L14.4393 590.867 M-239.825 588.508 L-239.825 588.508 L-239.168 588.47 L-239.5 589.802 M-238.478 587.79 L-238.478 587.79 L-238.505 587.197 M-237.478 586.79 L-237.478 586.79 L-237.505 586.197 M102.79 586.478 L102.79 586.478 L102.197 586.505 M102.541 584.818 L102.541 584.818 L100.713 584.183 L95.1771 574.521 L95.4769 574.171 L97.2864 574.816 L102.803 584.508 M-235.478 583.79 L-235.478 583.79 L-235.505 583.197 M108.518 581.853 L108.518 581.853 L105.254 573.733 L109.439 572.133 L111.5 572.002 L113.558 572.135 L116.699 573.748 L111.985 578.5 L110.866 579.074 M76.5216 946.79 L76.5216 946.79 L76.495 946.197 M375.431 569.962 L375.431 569.962 L376.978 569.507 L378.842 567.527 L378.157 565.527 L378.839 563.459 L377.107 552.865 L376.125 549.537 L377.59 547.857 L382.439 546.137 L384.295 546.83 L386.392 552.841 L388.79 565.275 L390.472 566.849 L392.133 566.896 L393.862 564.554 L393.984 561.503 L393.148 559.526 L393.042 555.046 L400.05 553.121 L402.833 560.463 L402.165 561.539 L403.781 567.259 L404.476 567.841 L405.527 567.842 L407.851 565.526 L407.985 564.496 L407.869 559.438 L406.232 553.719 L414.441 551.135 L416.524 551.162 L416.015 553.504 L416.014 557.494 L417.75 562.225 L418.775 563.25 L423.536 565.833 L431.198 563.334 L437.133 559.926 L438.861 557.554 L438.897 553.867 L436.691 552.242 L434.923 555.132 L432.171 557.297 L425.562 559.863 L424.198 559.687 L421.524 558.003 L421.843 555.473 L421.202 554.502 L421.524 553.998 L427.745 550.682 L437.439 547.133 L439.525 547.148 L441.503 547.984 L443.528 547.843 L443.983 546.496 L443.851 544.476 L440.554 542.138 L437.503 542.015 L435.768 542.694 L434.03 538.536 L431.526 536.148 L423.505 536.014 L415.753 538.769 L413.148 541.474 L413.106 544.159 L414.489 545.997 L408.562 547.864 L406.502 547.202 L405.708 547.71 L403.749 543.512 L402.218 537.74 L400.5 537.031 L399.019 537.497 L398.148 538.474 L398.134 543.559 L399.829 547.466 L398.5 548.799 L396.5 548.031 L394.526 548.852 L391.954 548.921 L388.247 540.775 L386.496 540.015 L382.445 540.138 L379.529 541.823 L378.472 541.178 L372.968 543.5 L361.284 547.397 L357.014 549.435 L357.523 552.008 L360.472 553.823 L361.754 552.768 L369.44 550.139 L371.24 550.772 L374.149 568.983 M-224.478 569.79 L-224.478 569.79 L-224.505 569.197 M93.5435 568.823 L93.5435 568.823 L91.48 568.852 L90.7169 568.189 L81.2848 554.81 L77.715 551.19 L74.1581 546.527 L74.4947 545.199 L78.1894 547.717 L79.0735 549.134 L82.2848 551.81 L91.2885 563.816 L93.825 568.483 M117.554 567.828 L117.554 567.828 L115.496 567.015 L104.857 566.892 L97.2886 552.816 L94.715 550.19 L93.0228 547.528 L90.1901 544.715 L87.8098 543.285 L82.19 537.715 L79.8098 536.285 L74.1835 530.711 L61.9315 523.484 L47.2293 516.676 L33.7719 512.335 L19.2542 505.682 L10.929 502.49 L-6.27136 496.915 L-23.9346 493.909 L-21.2851 489.81 L-17.7151 486.19 L-14.285 480.81 L-8.29065 473.812 L-1.70959 467.188 L1.70935 462.812 L5.28479 459.19 L6.71484 456.81 L11.2849 452.19 L20.7149 438.81 L22.7747 436.75 L26.225 435.249 L29.4735 432.149 L41.4962 432.015 L43.5001 432.799 L44.537 432.167 L49.4629 433.833 L50.5369 433.167 L69.9323 438.492 L92.2269 448.753 L105.184 456.711 L107.81 459.285 L114.19 463.715 L127.285 476.81 L132.287 483.815 L136.715 491.19 L142.715 499.19 L145.285 501.81 L148.715 507.19 L153.289 512.816 L158.711 522.184 L161.285 524.81 L163.851 528.474 L163.502 530.982 L154.472 540.023 L151.81 541.715 L148.19 545.285 L139.813 551.711 L138.926 553.134 L130.188 561.29 L125.165 565.301 M98.5215 566.79 L98.5215 566.79 L98.4951 566.197 M125.478 1013.21 L125.478 1013.21 L125.505 1013.8 M97.2094 564.522 L97.2094 564.522 L97.8026 564.495 M96.5235 562.791 L96.5235 562.791 L93.1583 558.527 L93.4948 557.199 L95.2846 558.81 L96.856 561.445 M-209.492 561.824 L-209.492 561.824 L-209.531 561.168 L-208.198 561.499 M92.5219 556.792 L92.5219 556.792 L90.1581 554.527 L90.4946 553.199 L92.8414 555.472 M578.494 555.843 L578.494 555.843 L579.198 555.289 L580.807 534.699 L581.816 533.711 L590.133 528.926 L591.822 526.528 L591.203 525.503 L591.695 524.813 L623.616 522.029 L624.522 521.041 L622.526 519.148 L620.503 519.016 L617.496 519.985 L590.456 520.017 L587.543 521.983 L582.473 521.852 L581.471 521.177 L576.816 523.711 L575.793 524.72 L574.036 533.46 L571.713 535.708 L569.524 533.149 L566.5 533.001 L564.439 533.132 L556.559 535.86 L555.469 535.834 L555.016 534.496 L555.137 531.446 L557.501 528.202 L558.472 528.843 L559.527 528.843 L560.474 528.148 L564.496 528.015 L566.474 528.852 L569.496 528.984 L570.835 528.529 L570.842 527.472 L569.954 525.956 L566.558 524.135 L562.503 524.015 L559.475 524.841 L557.133 522.104 L555.474 522.151 L553.689 524.777 L551.847 529.41 L550.165 535.461 L550.799 536.5 L550.201 537.5 L550.799 538.501 L547.926 542.133 L545.553 543.862 L544.494 543.985 L541.473 543.851 L538.866 541.926 L537.138 539.554 L537.015 537.506 L537.314 536.192 L539.977 531.527 L542.5 529.201 L543.472 529.843 L544.527 529.842 L545.851 528.526 L545.843 525.472 L544.496 525.017 L542.441 525.134 L538.775 526.75 L536.715 528.81 L534.753 531.772 L533.014 536.506 L533.137 540.554 L535.076 544.132 L537.808 546.283 L540.446 547.862 L546.554 547.862 L549.19 546.285 L551.713 543.291 L553.816 545.289 L558.446 547.862 L560.56 547.867 L565.447 546.206 L569.184 544.288 L571.992 540.523 L573.972 540.052 L575.864 545.438 L575.148 547.474 L575.131 549.561 L576.781 555.259 L577.48 555.843 M477.765 554.723 L477.765 554.723 L482.927 552.519 L486.472 550.158 L487.979 550.496 L491.446 552.862 L492.499 552.971 L501.218 550.253 L504.851 545.526 L504.999 543.5 L504.862 540.446 L501.307 534.834 L496.554 532.138 L491.474 532.148 L489.866 533.074 L487.024 537.149 L485.248 546.232 L475.558 550.866 L473.503 550.984 L472.018 550.502 L470.148 548.526 L470.148 541.474 L472.81 538.715 L475.469 537.178 L476.284 537.708 L477.861 535.553 L477.851 533.474 L476.529 532.158 L475.445 532.144 L470.816 534.711 L467.707 537.823 L466.686 539.774 L465.134 543.441 L465.134 547.558 L467.707 553.177 L469.473 554.851 M89.0464 552.519 L89.0464 552.519 L86.1581 549.527 L86.4946 548.199 L89.8415 551.472 L89.5012 552.803 M508.498 550.844 L508.498 550.844 L510.168 549.905 L511.151 548.386 L513.771 539.757 L514.503 539.203 L517.288 541.816 L519.711 546.183 L523.018 549.502 L525.496 549.984 L527.016 549.469 L528.007 546.495 L529.747 532.768 L532.919 531.047 L532.477 528.992 L529.5 527.161 L525.735 529.798 L522.931 541.753 L520.285 537.81 L515.526 533.148 L512.441 533.134 L507.057 535.516 L505.112 536.86 L505.086 538.056 L507.776 539.695 L506.13 546.438 L506.148 549.526 L507.476 550.844 M598.968 549.515 L598.968 549.515 L600.819 540.016 L603.868 529.56 L603.984 526.504 L603.527 525.157 L601.476 525.149 L599.901 527.407 L596.131 540.438 L596.148 548.526 L597.471 549.842 M492.177 547.545 L492.177 547.545 L492.494 546.022 L494.81 543.715 L497.166 542.307 L499.163 540.103 L500.838 542.5 L499.024 545.47 L495.554 547.862 L493.504 547.983 M84.5217 547.79 L84.5217 547.79 L84.495 547.197 M424.573 546.849 L424.573 546.849 L423.197 546.509 L423.984 544.496 L423.852 542.474 L423.2 541.494 L423.476 541.162 L430.526 541.148 L433.024 543.326 M83.478 546.209 L83.478 546.209 L83.5045 546.802 M82.5216 545.79 L82.5216 545.79 L82.4951 545.197 M417.545 544.822 L417.545 544.822 L416.197 544.508 L417.505 543.199 M73.5217 544.792 L73.5217 544.792 L72.5044 543.975 L72.475 543.17 L73.834 543.471 M562.577 542.854 L562.577 542.854 L558.446 542.862 L556.109 540.823 L560.799 538.636 L570.468 536.165 L570.835 536.477 L570.89 538.144 L566.228 541.247 M490.522 542.79 L490.522 542.79 L490.495 542.197 M418.521 542.79 L418.521 542.79 L418.495 542.197 M71.5216 542.79 L71.5216 542.79 L71.495 542.197 M491.522 541.787 L491.522 541.787 L491.019 540.504 L491.148 538.474 L492.474 537.149 L494.527 537.158 L494.842 538.527 M571.521 539.79 L571.521 539.79 L571.495 539.197 M72.5216 536.79 L72.5216 536.79 L72.4951 536.197 M71.5216 535.79 L71.5216 535.79 L71.495 535.197 M68.5215 533.79 L68.5215 533.79 L68.4951 533.197 M582.57 528.844 L582.57 528.844 L581.157 528.531 L581.472 526.157 L586.715 526.315 M383.958 524.523 L383.958 524.523 L384.852 523.531 L384.984 522.496 L384.852 520.474 L384.015 518.496 L384.148 504.474 L386.81 501.715 L390.132 499.924 L394.284 495.19 L395.823 492.529 L394.919 490.855 L390.556 488.144 L383.498 489.756 L380.533 490.973 L379.498 492.019 L379.158 493.527 L380.471 494.841 L381.771 494.717 L385.441 493.134 L388.496 493.016 L389.823 493.522 L388.307 496.165 L384.713 498.709 L382.525 496.159 L380.995 496.522 L379.893 498.422 L378.22 504.26 L376.15 506.471 L376.104 508.133 L379.2 510.71 L381.082 522.987 L382.474 524.841 M334.96 523.523 L334.96 523.523 L336.253 522.218 L339.1 512.867 L341.445 511.144 L343.5 511.799 L344.5 511.201 L345.473 511.843 L347.311 511.285 L349.794 520.276 L350.503 520.797 L351.5 520.201 L352.501 520.799 L354.851 518.526 L354.852 514.474 L354.114 512.949 L356.983 510.56 L356.897 508.867 L354.556 507.139 L353.029 506.952 L349.317 495.804 L348.022 493.527 L346.529 492.158 L345.186 492.319 L339.73 494.793 L337.255 503.214 L336.15 504.471 L335.923 506.046 L332.149 508.477 L332.016 510.496 L332.852 512.474 L332.862 514.554 L330.157 520.493 L332.476 523.85 M364.956 519.517 L364.956 519.517 L369.015 515.499 L370.157 514.912 L372.86 509.56 L371.249 504.775 L368.3 501.748 L372.039 499.951 L373.829 496.534 L372.926 494.867 L370.553 493.138 L365.446 493.138 L362.81 494.715 L361.148 496.474 L361.138 500.554 L362.715 503.19 L367.842 508.472 L367.842 509.527 L363.527 513.842 L361.527 513.157 L360.02 513.497 L359.148 514.474 L359.149 517.523 L359.754 518.229 L364.467 519.834 M414.958 514.525 L414.958 514.525 L418.47 512.024 L421.475 508.159 L422.981 508.497 L424.81 510.285 L427.446 511.862 L433.5 511.999 L435.559 511.866 L439.228 510.247 L441.896 508.133 L441.841 506.47 L440.496 506.017 L438.445 506.138 L435.554 507.862 L429.446 507.862 L424.102 504.133 L424.137 501.446 L426.529 497.975 L429.445 496.143 L432.131 496.865 L434.851 493.526 L434.851 491.474 L433.98 490.497 L432.472 490.158 L431.224 491.25 L425.822 493.708 L422.834 495.693 L420.138 500.446 L419.897 504.133 L417.692 505.834 L416.161 508.31 L411.554 510.862 L410.494 510.984 L408.473 510.851 L405.768 508.246 L404.223 503.678 L413.465 499.171 L414.5 499.799 L415.5 499.201 L416.474 499.852 L418.527 499.842 L418.851 497.474 L416.526 495.148 L415.496 495.015 L412.441 495.134 L408.721 496.76 L406.522 492.15 L404.474 492.149 L402.749 493.779 L400.251 500.221 L397.158 503.473 L397.158 504.525 L400.282 506.809 L403.074 512.133 L406.473 514.851 L413.496 514.985 M453.958 511.523 L453.958 511.523 L454.843 510.532 L454.015 507.496 L454.001 493.5 L454.148 491.474 L454.971 489.452 L452.529 487.178 L450.137 490.446 L450.014 508.494 L450.317 509.805 L451.867 511.896 M458.951 505.521 L458.951 505.521 L459.789 504.739 L462.483 503.765 L471.168 501.347 L478.314 498.16 L479.823 495.528 L477.19 492.715 L474.527 491.023 L473.148 489.526 L473.015 485.503 L473.81 483.717 L477.471 481.149 L479.133 480.899 L480.822 478.528 L479.526 477.149 L472.437 477.129 L458.573 479.714 L447.401 482.872 L439.753 485.771 L439.149 486.477 L439.157 489.528 L441.554 489.862 L444.82 487.709 L449.491 485.754 L467.439 481.132 L470.522 481.163 L470.704 481.763 L469.134 485.441 L469.134 488.559 L470.75 492.225 L473.797 495.497 L473.224 496.246 L468.181 498.352 L458.731 500.786 L457.149 502.474 L457.031 503.5 L457.497 504.98 L458.504 505.802 M345.55 505.829 L345.55 505.829 L343.509 505.982 L342.17 505.473 L344.316 500.918 L345.864 503.442 M-57.4828 505.791 L-57.4828 505.791 L-58.7305 504.786 L-76.2448 501.017 L-73.4941 500.014 L-66.5037 500.015 L-63.4963 500.984 L-61.4741 500.852 L-59.5035 500.03 L-41.2834 501.938 L-56.255 504.776 M-8.47827 501.79 L-8.47827 501.79 L-8.50488 501.197 M534.959 500.523 L534.959 500.523 L535.852 499.531 L535.842 496.475 L534.957 495.956 L533.134 492.558 L533.138 487.446 L534.821 484.71 L547.285 482.2 L547.841 481.523 L547.842 480.472 L546.98 479.497 L545.496 479.015 L540.506 479.014 L534.53 480.833 L534.032 479.5 L534.851 477.526 L534.851 475.474 L533.527 474.158 L532.472 474.158 L528.224 477.249 L521.559 479.86 L520.019 479.502 L518.526 478.148 L515.473 478.148 L510.75 481.775 L509.134 485.441 L509.138 491.554 L511.711 496.183 L513.018 497.502 L514.504 497.984 L516.558 497.866 L522.133 494.926 L523.861 492.554 L523.985 491.494 L523.984 486.503 L523.135 483.869 L525.446 482.138 L528.547 482.146 L526.149 484.476 L526.157 486.528 L527.955 487.042 L530.785 499.267 L532.474 500.851 M367.281 500.674 L367.281 500.674 L366.159 499.526 L366.165 498.471 L368.522 498.163 L368.666 498.803 M-11.4783 500.79 L-11.4783 500.79 L-11.5048 500.197 M-15.4905 500.833 L-15.4905 500.833 L-15.5295 500.161 L-13.1978 500.5 M399.844 494.544 L399.844 494.544 L400.816 492.713 L407.446 489.138 L413.524 489.149 L415.869 491.865 L416.491 491.865 L418.842 489.527 L418.842 488.472 L416.19 485.715 L413.554 484.138 L411.438 484.131 L405.486 485.745 L398.815 488.712 L397.148 490.474 L397.157 494.528 L398.5 494.968 M514.156 493.544 L514.156 493.544 L513.148 491.526 L513.015 486.503 L513.497 485.018 L515.286 483.291 L517.501 485.798 L518.498 485.202 L519.282 485.811 L520.862 488.446 L520.969 489.502 L520.502 490.982 L519.472 492.023 L516.554 493.862 M527.797 475.69 L527.797 475.69 L530.772 473.753 L535.506 472.014 L544.147 472.102 L546.453 473.971 L547.53 473.841 L547.983 472.496 L547.851 470.476 L544.554 468.138 L534.441 468.134 L527.776 470.751 L525.104 472.867 L525.497 474.98 L526.471 475.841 M-283.532 465.978 L-283.532 465.978 L-282.023 465.507 L-281.201 464.5 L-282.852 462.526 L-282.998 460.5 L-282.862 458.446 L-281.285 455.81 L-278.926 452.866 L-276.527 451.023 L-269.715 444.19 L-266.023 438.528 L-257.715 431.19 L-245.023 414.528 L-242.19 411.715 L-239.529 410.024 L-237.285 406.81 L-229.19 398.715 L-220.19 391.715 L-211.81 386.285 L-210.184 384.711 L-205.816 382.289 L-204.184 380.712 L-190.965 373.494 L-172.94 364.481 L-158.364 359.697 L-135.493 356.015 L-133.474 356.147 L-132.5 356.799 L-131.458 356.158 L-106.47 358.841 L-104.158 356.527 L-104.158 355.472 L-106.473 353.158 L-109.497 353.97 L-118.503 352.03 L-121.527 352.843 L-122.5 352.201 L-123.5 352.799 L-125.503 352.015 L-134.5 352.001 L-159.362 355.697 L-169.457 358.783 L-181.227 363.753 L-185.996 366.497 L-193.227 369.753 L-196.772 372.247 L-207.186 377.713 L-217.19 384.715 L-218.816 386.289 L-223.184 388.711 L-229.81 394.285 L-232.472 395.977 L-240.285 403.81 L-241.976 406.47 L-247.291 410.812 L-252.285 416.81 L-256.715 423.19 L-259.285 425.81 L-260.715 428.19 L-264.81 432.285 L-269.023 435.528 L-272.715 441.19 L-279.016 447.5 L-280.134 448.074 L-286.232 455.754 L-287.867 460.439 L-287.862 462.554 L-286.283 465.189 L-285.524 465.85 M-15.4965 464.864 L-15.4965 464.864 L-12.528 463.023 L-8.71515 459.19 L-6.75342 456.227 L4.86542 431.558 L4.52728 429.157 L2.44586 429.138 L-0.3078 430.834 L-2.24695 433.773 L-11.7534 454.228 L-13.7151 457.19 L-15.4727 458.842 L-16.8345 458.529 L-16.8342 457.473 L-15.0428 455.75 L-11.5845 440.154 L-8.34497 418.495 L3.49628 358.033 L28.2659 268.552 L33.6158 245.713 L42.7422 211.448 L45.6804 202.807 L47.2283 200.249 L48.8673 195.561 L48.8513 192.474 L47.526 191.149 L45.4772 191.15 L44.7714 191.753 L37.7787 210.559 L14.3716 301.265 L-0.377319 353.739 L-3.32916 367.428 L-5.6886 381.516 L-11.4079 407.701 L-15.8026 436.072 L-18.8449 449.711 L-20.6624 446.581 L-23.6291 434.765 L-25.7241 428.804 L-27.5021 427.027 L-28.1307 427.107 L-29.8619 429.446 L-29.8622 435.554 L-27.757 440.47 L-23.2106 457.423 L-20.1909 463.281 L-16.5543 464.864 M146.956 206.518 L146.956 206.518 L148.288 205.184 L150.711 200.816 L152.249 199.225 L154.289 195.296 L156.712 199.184 L158.775 201.249 L162.44 202.861 L165.133 201.926 L167.248 199.225 L168.526 195.847 L171.617 181.858 L174.191 176.318 L176.623 196.01 L177.851 197.889 L181.155 197.887 L183.496 192.97 L186.74 181.784 L191.261 179.254 L193.828 187.466 L193.165 188.539 L195.028 193.949 L197.526 193.851 L198.851 192.526 L198.869 187.438 L197.03 179.497 L197.782 177.749 L207.282 174.249 L210.717 183.188 L213.446 184.862 L215.526 184.851 L217.288 183.184 L220.862 176.554 L220.865 167.441 L219.247 163.772 L217.165 160.692 L214.554 159.138 L211.446 159.138 L208.149 161.476 L208.147 164.526 L208.799 165.5 L207.926 167.133 L203.424 170.19 L198.562 171.866 L196.941 171.913 L192.248 158.778 L191.523 158.149 L188.474 158.149 L186.712 159.815 L184.775 163.619 L182.108 174.705 L180.916 176.929 L177.253 165.782 L175.529 164.158 L174.445 164.144 L171.744 165.777 L170.034 172.461 L167.703 174.829 L166.789 176.647 L163.204 192.447 L162.11 194.906 L159.677 191.225 L157.249 184.779 L156.523 184.149 L154.503 184.016 L153.018 184.498 L151.707 185.823 L147.247 196.224 L146.034 196.911 L141.952 182.042 L139.474 182.148 L138.148 183.474 L138.014 187.493 L141.779 203.259 L143.046 205.043 L146.47 206.83 M180.824 184.492 L180.824 184.492 L180.168 184.53 L180.5 183.198 M235.799 179.693 L235.799 179.693 L241.226 177.247 L244.19 175.285 L246.285 173.19 L247.823 170.528 L246.526 169.149 L244.446 169.138 L238.554 172.862 L236.504 172.983 L235.157 172.528 L235.13 166.438 L237.984 155.497 L237.897 153.867 L235.527 152.178 L233.712 153.815 L231.916 157.308 L230.13 164.438 L230.001 171.5 L230.134 173.559 L231.75 177.225 L234.471 179.841 M76.5002 179.872 L76.5002 179.872 L84.1901 175.285 L87.133 172.926 L88.8224 170.521 L87.4963 170.016 L84.4734 170.148 L76.5263 175.851 L75.4963 175.985 L70.4736 175.851 L68.7151 174.19 L67.1375 171.554 L67.0137 157.507 L69.644 146.854 L72.7531 139.773 L74.7191 136.808 L75.221 136.312 L77.4658 140.885 L78.2291 140.246 L79.8675 135.56 L79.9214 130.954 L76.5333 129.171 L73.8663 131.074 L71.7167 133.808 L67.6832 140.745 L64.7109 148.645 L62.1331 164.436 L63.951 173.77 L65.976 177.471 L69.4457 179.862 M214.753 176.469 L214.753 176.469 L213.168 172.536 L213.799 171.5 L213.179 170.473 L214.501 168.838 L215.861 170.447 L215.985 171.506 L215.864 174.558 M188.569 174.844 L188.569 174.844 L187.157 174.531 L187.014 169.506 L188.776 164.954 L190.867 170.439 L190.982 172.545 M264.737 171.746 L264.737 171.746 L273.216 169.254 L276.472 167.023 L278.284 165.19 L279.856 162.556 L279.682 161.195 L278.13 159.135 L273.81 161.715 L272.177 163.293 L266.558 165.866 L258.473 165.851 L256.15 163.528 L256.104 161.867 L259.81 158.715 L268.032 153.497 L271.557 151.794 L279.217 149.253 L280.842 147.527 L280.842 146.472 L279.526 145.149 L273.441 145.134 L263.814 149.713 L256.521 154.823 L256.137 153.439 L257.867 148.561 L258.078 144.954 L261.5 143.153 L265.225 144.75 L266.473 145.851 L268.843 145.528 L268.852 142.474 L267.919 140.855 L263.554 138.138 L261.506 138.015 L256.772 139.753 L252.998 142.502 L249.148 147.474 L249.015 150.496 L249.497 151.982 L250.851 153.474 L250.852 155.526 L250.16 156.541 L252.044 166.909 L253.091 169.157 L258.441 171.866 M97.9598 171.523 L97.9598 171.523 L100.81 168.715 L104.285 166.19 L106.228 163.249 L107.867 158.561 L107.862 152.446 L105.282 146.81 L102.554 145.138 L100.442 145.134 L96.7747 146.751 L93.7506 149.775 L90.1323 159.439 L90.1342 166.559 L91.7178 170.191 L94.4457 171.862 L96.4955 171.984 M96.5449 166.829 L96.5449 166.829 L95.0236 166.506 L94.1483 165.526 L94.1321 160.439 L95.7933 155.552 L97.6903 151.838 L100.471 150.177 L101.995 151.027 L103.862 155.438 L103.86 156.561 L100.923 163.132 M120.842 160.546 L120.842 160.546 L123.089 149.066 L124.283 149.811 L126.81 153.285 L130.474 155.851 L134.526 155.851 L136.258 154.211 L138.865 144.563 L138.157 142.527 L138.799 140.5 L138.015 138.496 L138.148 132.474 L139.047 130.948 L141.919 129.054 L141.849 127.471 L140.526 126.149 L137.474 126.149 L135.726 127.811 L135.126 129.406 L132.335 151.765 L129.692 150.166 L126.285 144.81 L124.148 142.526 L123.897 136.867 L121.554 135.144 L119.747 135.785 L116.13 150.438 L116.015 158.496 L116.497 159.981 L117.474 160.851 L119.496 160.983 M160.766 152.723 L160.766 152.723 L166.177 150.293 L171.474 146.149 L173.526 146.149 L175.474 147.851 L177.5 147.998 L179.56 147.868 L184.249 146.228 L187.19 144.285 L190.25 141.225 L192.685 136.24 L195.47 137.822 L196.004 137.474 L197.823 134.529 L197.2 133.5 L197.799 132.5 L197.015 130.496 L197.001 125.5 L197.148 123.474 L197.994 122.076 L206.49 120.01 L213.19 116.285 L215.862 112.554 L215.862 110.446 L214.307 107.834 L206.56 104.14 L198.449 105.972 L195.524 103.149 L190.506 103.014 L180.71 106.18 L173.731 107.786 L172.001 109.5 L171.148 110.474 L171.017 112.496 L171.502 113.857 L172.145 113.865 L174.453 112.028 L176.537 112.833 L189.439 108.133 L191.8 108.494 L191.015 110.503 L191.014 118.494 L192.862 122.446 L192.999 124.5 L192.985 128.497 L192.148 130.474 L191.897 134.133 L188.868 136.076 L185.19 140.285 L182.228 142.247 L178.5 143.847 L174.809 142.282 L173.138 139.554 L173.149 128.476 L175.647 126.789 L186.269 124.211 L186.841 123.524 L186.842 122.473 L185.526 121.149 L179.503 121.015 L176.471 121.835 L176.158 120.473 L176.852 119.526 L176.843 116.472 L173.954 116.078 L169.916 123.308 L168.163 130.46 L168.985 132.503 L168.862 141.554 L166.184 145.288 L159.554 148.862 L155.441 148.866 L149.824 146.291 L149.149 145.524 L149.001 141.5 L149.132 139.439 L150.792 134.552 L153.711 128.816 L155.5 127.201 L157.473 128.842 L158.98 128.503 L159.851 127.526 L159.861 123.446 L158.129 121.135 L157.474 121.128 L150.834 125.692 L148.753 128.773 L145.744 136.487 L144.131 142.438 L144.138 145.554 L145.977 148.472 L147.823 150.293 L149.774 151.314 L153.441 152.866 M223.667 133.696 L223.667 133.696 L226.851 131.524 L226.985 128.503 L226.148 126.526 L226.014 121.507 L228.733 107.573 L230.856 102.555 L230.081 98.9532 L236.775 95.6732 L253.176 89.291 L253.85 88.5237 L253.968 87.5003 L253.528 86.1572 L247.446 86.1379 L233.746 91.6808 L222.814 96.7136 L219.81 98.7151 L216.75 101.775 L215.171 105.466 L215.852 106.471 L216.1 108.133 L218.469 109.821 L219.217 109.259 L220.778 103.741 L224.445 101.144 L225.834 101.47 L223.807 108.299 L221.135 121.436 L223.063 132.815 M203.544 115.815 L203.544 115.815 L201.5 114.201 L200.527 114.843 L199.475 114.83 L199.842 112.475 L199.287 111.696 L206.493 109.149 L209.917 110.958 L209.887 112.141 M309.959 108.523 L309.959 108.523 L310.851 107.531 L310.851 105.474 L307.715 102.19 L304.117 96.5102 L307.9 94.0004 L307.881 93.5268 L306.926 91.8664 L302.956 88.9534 L298.248 77.776 L296.133 75.1022 L294.5 75.0167 L293.018 75.4976 L291.744 76.7808 L290.249 79.6986 L289.523 79.1482 L286.845 79.1135 L284.5 83.9911 L283.03 88.5027 L283.523 90.0078 L285.897 91.8671 L285.982 92.4548 L285.869 95.562 L284.13 102.438 L284.016 104.496 L284.497 105.981 L285.474 106.851 L286.5 106.969 L288.286 106.184 L290.334 102.199 L292.768 94.7547 L294.474 93.1485 L296.557 93.0163 L298.654 96.2697 L300.753 101.227 L305.717 108.19 L307.504 108.984 M194.54 107.817 L194.54 107.817 L193.195 107.503 L194.524 107.171 M323.748 94.7371 L323.748 94.7371 L330.168 92.297 L330.85 91.5237 L330.862 89.4459 L329.308 86.8344 L326.81 85.2851 L324.001 82.5001 L323.149 81.5261 L323.031 80.4999 L323.523 78.992 L326.313 77.2392 L328.49 78.8634 L330.862 75.5542 L330.862 72.4463 L329.133 70.1041 L327.471 70.1505 L325.183 72.2887 L320.816 74.7113 L318.148 77.4737 L318.138 82.5542 L319.715 85.19 L322.797 88.4969 L322.245 89.228 L317.754 90.7684 L316.177 92.5276 L317.867 94.8975 M295.545 87.8223 L295.545 87.8223 L294.157 87.5309 L294.471 85.1653 L295.842 85.4724 M377.495 77.854 L377.495 77.854 L381.288 73.1837 L383.69 68.8382 L386.483 67.1218 L388.452 69.9906 L390.518 74.944 L391.858 76.8923 L395.526 76.8514 L396.841 75.5289 L396.856 74.4451 L394.138 69.554 L394.05 67.028 L399.461 65.1651 L401.503 65.9848 L404.843 65.5278 L404.984 63.5036 L404.471 61.986 L400.534 60.1708 L399.5 60.7993 L398.527 60.157 L397.473 60.1573 L396.526 60.8521 L393.028 60.949 L389.217 46.7374 L387.133 44.1039 L385.018 44.4976 L383.746 45.7771 L382.042 48.8859 L380.526 48.1478 L377.858 48.1075 L375.779 51.6195 L372.029 68.4998 L373.793 77.2752 L374.477 77.8508 M378.519 64.7856 L378.519 64.7856 L378.133 63.4406 L381.733 50.2983 L381.869 54.562 L380.162 61.7005 M386.527 61.7896 L386.527 61.7896 L386.168 60.4796 L386.5 60.1979 L386.832 61.5305 "/></g>
</svg>